<mxfile host="65bd71144e">
    <diagram id="-k2_nvyl8h7EHHhGBUQ3" name="TickFunction">
        <mxGraphModel dx="3275" dy="2038" grid="1" gridSize="10" guides="1" tooltips="1" connect="1" arrows="1" fold="1" page="1" pageScale="1" pageWidth="827" pageHeight="1169" math="0" shadow="0">
            <root>
                <mxCell id="6dMJGXCS0I9ftsZN87XB-0"/>
                <mxCell id="6dMJGXCS0I9ftsZN87XB-1" parent="6dMJGXCS0I9ftsZN87XB-0"/>
                <mxCell id="pCnDFOAcOZm_-gvaMoIE-0" value="FTickFunction" style="swimlane;fontStyle=1;align=center;verticalAlign=top;childLayout=stackLayout;horizontal=1;startSize=26;horizontalStack=0;resizeParent=1;resizeParentMax=0;resizeLast=0;collapsible=1;marginBottom=0;" parent="6dMJGXCS0I9ftsZN87XB-1" vertex="1">
                    <mxGeometry x="320" y="80" width="360" height="216" as="geometry"/>
                </mxCell>
                <mxCell id="pCnDFOAcOZm_-gvaMoIE-1" value="ETickState TickState;" style="text;strokeColor=none;fillColor=none;align=left;verticalAlign=top;spacingLeft=4;spacingRight=4;overflow=hidden;rotatable=0;points=[[0,0.5],[1,0.5]];portConstraint=eastwest;" parent="pCnDFOAcOZm_-gvaMoIE-0" vertex="1">
                    <mxGeometry y="26" width="360" height="26" as="geometry"/>
                </mxCell>
                <mxCell id="pCnDFOAcOZm_-gvaMoIE-18" value="TUniquePtr&lt;FInternalData&gt; InternalData;" style="text;strokeColor=none;fillColor=none;align=left;verticalAlign=top;spacingLeft=4;spacingRight=4;overflow=hidden;rotatable=0;points=[[0,0.5],[1,0.5]];portConstraint=eastwest;" parent="pCnDFOAcOZm_-gvaMoIE-0" vertex="1">
                    <mxGeometry y="52" width="360" height="26" as="geometry"/>
                </mxCell>
                <mxCell id="49" value="TArray&lt;struct FTickPrerequisite&gt; Prerequisites;" style="text;strokeColor=none;fillColor=none;align=left;verticalAlign=top;spacingLeft=4;spacingRight=4;overflow=hidden;rotatable=0;points=[[0,0.5],[1,0.5]];portConstraint=eastwest;" parent="pCnDFOAcOZm_-gvaMoIE-0" vertex="1">
                    <mxGeometry y="78" width="360" height="26" as="geometry"/>
                </mxCell>
                <mxCell id="87" value="uint8 bCanEverTick:1;" style="text;strokeColor=none;fillColor=none;align=left;verticalAlign=top;spacingLeft=4;spacingRight=4;overflow=hidden;rotatable=0;points=[[0,0.5],[1,0.5]];portConstraint=eastwest;" parent="pCnDFOAcOZm_-gvaMoIE-0" vertex="1">
                    <mxGeometry y="104" width="360" height="26" as="geometry"/>
                </mxCell>
                <mxCell id="pCnDFOAcOZm_-gvaMoIE-2" value="" style="line;strokeWidth=1;fillColor=none;align=left;verticalAlign=middle;spacingTop=-1;spacingLeft=3;spacingRight=3;rotatable=0;labelPosition=right;points=[];portConstraint=eastwest;strokeColor=inherit;" parent="pCnDFOAcOZm_-gvaMoIE-0" vertex="1">
                    <mxGeometry y="130" width="360" height="8" as="geometry"/>
                </mxCell>
                <mxCell id="pCnDFOAcOZm_-gvaMoIE-17" value="void SetTickFunctionEnable(bool bInEnabled);" style="text;strokeColor=none;fillColor=none;align=left;verticalAlign=top;spacingLeft=4;spacingRight=4;overflow=hidden;rotatable=0;points=[[0,0.5],[1,0.5]];portConstraint=eastwest;" parent="pCnDFOAcOZm_-gvaMoIE-0" vertex="1">
                    <mxGeometry y="138" width="360" height="26" as="geometry"/>
                </mxCell>
                <mxCell id="pCnDFOAcOZm_-gvaMoIE-3" value="bool IsTickFunctionRegistered() const { return (InternalData &amp;&amp; InternalData-&gt;bRegistered); }" style="text;strokeColor=none;fillColor=none;align=left;verticalAlign=top;spacingLeft=4;spacingRight=4;overflow=hidden;rotatable=0;points=[[0,0.5],[1,0.5]];portConstraint=eastwest;" parent="pCnDFOAcOZm_-gvaMoIE-0" vertex="1">
                    <mxGeometry y="164" width="360" height="26" as="geometry"/>
                </mxCell>
                <mxCell id="pCnDFOAcOZm_-gvaMoIE-39" value="void RegisterTickFunction(class ULevel* Level);" style="text;strokeColor=none;fillColor=none;align=left;verticalAlign=top;spacingLeft=4;spacingRight=4;overflow=hidden;rotatable=0;points=[[0,0.5],[1,0.5]];portConstraint=eastwest;" parent="pCnDFOAcOZm_-gvaMoIE-0" vertex="1">
                    <mxGeometry y="190" width="360" height="26" as="geometry"/>
                </mxCell>
                <mxCell id="pCnDFOAcOZm_-gvaMoIE-4" value="RegisterTickFunction" style="shape=step;perimeter=stepPerimeter;whiteSpace=wrap;html=1;fixedSize=1;" parent="6dMJGXCS0I9ftsZN87XB-1" vertex="1">
                    <mxGeometry x="90" y="720" width="120" height="80" as="geometry"/>
                </mxCell>
                <mxCell id="pCnDFOAcOZm_-gvaMoIE-5" value="UnRegisterTickFunction" style="shape=step;perimeter=stepPerimeter;whiteSpace=wrap;html=1;fixedSize=1;" parent="6dMJGXCS0I9ftsZN87XB-1" vertex="1">
                    <mxGeometry x="90" y="840" width="120" height="80" as="geometry"/>
                </mxCell>
                <mxCell id="pCnDFOAcOZm_-gvaMoIE-7" value="FActorTickFunction" style="swimlane;fontStyle=1;align=center;verticalAlign=top;childLayout=stackLayout;horizontal=1;startSize=26;horizontalStack=0;resizeParent=1;resizeParentMax=0;resizeLast=0;collapsible=1;marginBottom=0;" parent="6dMJGXCS0I9ftsZN87XB-1" vertex="1">
                    <mxGeometry x="-80" y="310" width="820" height="86" as="geometry"/>
                </mxCell>
                <mxCell id="pCnDFOAcOZm_-gvaMoIE-8" value="class AActor*&#9;Target;" style="text;strokeColor=none;fillColor=none;align=left;verticalAlign=top;spacingLeft=4;spacingRight=4;overflow=hidden;rotatable=0;points=[[0,0.5],[1,0.5]];portConstraint=eastwest;" parent="pCnDFOAcOZm_-gvaMoIE-7" vertex="1">
                    <mxGeometry y="26" width="820" height="26" as="geometry"/>
                </mxCell>
                <mxCell id="pCnDFOAcOZm_-gvaMoIE-9" value="" style="line;strokeWidth=1;fillColor=none;align=left;verticalAlign=middle;spacingTop=-1;spacingLeft=3;spacingRight=3;rotatable=0;labelPosition=right;points=[];portConstraint=eastwest;strokeColor=inherit;" parent="pCnDFOAcOZm_-gvaMoIE-7" vertex="1">
                    <mxGeometry y="52" width="820" height="8" as="geometry"/>
                </mxCell>
                <mxCell id="pCnDFOAcOZm_-gvaMoIE-10" value="ENGINE_API virtual void ExecuteTick(float DeltaTime, ELevelTick TickType, ENamedThreads::Type CurrentThread, const FGraphEventRef&amp; MyCompletionGraphEvent) override;" style="text;strokeColor=none;fillColor=none;align=left;verticalAlign=top;spacingLeft=4;spacingRight=4;overflow=hidden;rotatable=0;points=[[0,0.5],[1,0.5]];portConstraint=eastwest;" parent="pCnDFOAcOZm_-gvaMoIE-7" vertex="1">
                    <mxGeometry y="60" width="820" height="26" as="geometry"/>
                </mxCell>
                <mxCell id="pCnDFOAcOZm_-gvaMoIE-12" value="*如果已禁用，此勾将不会触发&#10;*如果冷却，这个滴答有一个间隔频率，目前正在坚持&#10;*注意:不要直接设置" style="text;whiteSpace=wrap;html=1;" parent="6dMJGXCS0I9ftsZN87XB-1" vertex="1">
                    <mxGeometry x="-35" y="70" width="310" height="70" as="geometry"/>
                </mxCell>
                <mxCell id="pCnDFOAcOZm_-gvaMoIE-13" value="ETickState" style="swimlane;fontStyle=0;childLayout=stackLayout;horizontal=1;startSize=26;fillColor=none;horizontalStack=0;resizeParent=1;resizeParentMax=0;resizeLast=0;collapsible=1;marginBottom=0;" parent="6dMJGXCS0I9ftsZN87XB-1" vertex="1">
                    <mxGeometry x="25" y="-153" width="140" height="104" as="geometry"/>
                </mxCell>
                <mxCell id="pCnDFOAcOZm_-gvaMoIE-14" value="Disabled" style="text;strokeColor=none;fillColor=none;align=left;verticalAlign=top;spacingLeft=4;spacingRight=4;overflow=hidden;rotatable=0;points=[[0,0.5],[1,0.5]];portConstraint=eastwest;" parent="pCnDFOAcOZm_-gvaMoIE-13" vertex="1">
                    <mxGeometry y="26" width="140" height="26" as="geometry"/>
                </mxCell>
                <mxCell id="pCnDFOAcOZm_-gvaMoIE-15" value="&#9;&#9;Enabled,&#10;" style="text;strokeColor=none;fillColor=none;align=left;verticalAlign=top;spacingLeft=4;spacingRight=4;overflow=hidden;rotatable=0;points=[[0,0.5],[1,0.5]];portConstraint=eastwest;" parent="pCnDFOAcOZm_-gvaMoIE-13" vertex="1">
                    <mxGeometry y="52" width="140" height="26" as="geometry"/>
                </mxCell>
                <mxCell id="pCnDFOAcOZm_-gvaMoIE-16" value="CoolingDown" style="text;strokeColor=none;fillColor=none;align=left;verticalAlign=top;spacingLeft=4;spacingRight=4;overflow=hidden;rotatable=0;points=[[0,0.5],[1,0.5]];portConstraint=eastwest;" parent="pCnDFOAcOZm_-gvaMoIE-13" vertex="1">
                    <mxGeometry y="78" width="140" height="26" as="geometry"/>
                </mxCell>
                <mxCell id="pCnDFOAcOZm_-gvaMoIE-19" value="延迟分配的结构，其中包含已注册的tick函数所需的数据。" style="text;html=1;align=center;verticalAlign=middle;resizable=0;points=[];autosize=1;strokeColor=none;fillColor=none;" parent="6dMJGXCS0I9ftsZN87XB-1" vertex="1">
                    <mxGeometry x="-10" y="135" width="330" height="30" as="geometry"/>
                </mxCell>
                <mxCell id="pCnDFOAcOZm_-gvaMoIE-20" value="FInternalData" style="swimlane;fontStyle=1;align=center;verticalAlign=top;childLayout=stackLayout;horizontal=1;startSize=26;horizontalStack=0;resizeParent=1;resizeParentMax=0;resizeLast=0;collapsible=1;marginBottom=0;" parent="6dMJGXCS0I9ftsZN87XB-1" vertex="1">
                    <mxGeometry x="1030" y="-183" width="330" height="190" as="geometry"/>
                </mxCell>
                <mxCell id="pCnDFOAcOZm_-gvaMoIE-21" value="bool bRegistered : 1;" style="text;strokeColor=none;fillColor=none;align=left;verticalAlign=top;spacingLeft=4;spacingRight=4;overflow=hidden;rotatable=0;points=[[0,0.5],[1,0.5]];portConstraint=eastwest;" parent="pCnDFOAcOZm_-gvaMoIE-20" vertex="1">
                    <mxGeometry y="26" width="330" height="26" as="geometry"/>
                </mxCell>
                <mxCell id="pCnDFOAcOZm_-gvaMoIE-29" value="float LastTickGameTimeSeconds;" style="text;strokeColor=none;fillColor=none;align=left;verticalAlign=top;spacingLeft=4;spacingRight=4;overflow=hidden;rotatable=0;points=[[0,0.5],[1,0.5]];portConstraint=eastwest;" parent="pCnDFOAcOZm_-gvaMoIE-20" vertex="1">
                    <mxGeometry y="52" width="330" height="26" as="geometry"/>
                </mxCell>
                <mxCell id="pCnDFOAcOZm_-gvaMoIE-28" value="class FTickTaskLevel*&#9;&#9;&#9;&#9;&#9;&#9;TickTaskLevel;" style="text;strokeColor=none;fillColor=none;align=left;verticalAlign=top;spacingLeft=4;spacingRight=4;overflow=hidden;rotatable=0;points=[[0,0.5],[1,0.5]];portConstraint=eastwest;" parent="pCnDFOAcOZm_-gvaMoIE-20" vertex="1">
                    <mxGeometry y="78" width="330" height="26" as="geometry"/>
                </mxCell>
                <mxCell id="47" value="int32 TickQueuedGFrameCounter;" style="text;strokeColor=none;fillColor=none;align=left;verticalAlign=top;spacingLeft=4;spacingRight=4;overflow=hidden;rotatable=0;points=[[0,0.5],[1,0.5]];portConstraint=eastwest;" parent="pCnDFOAcOZm_-gvaMoIE-20" vertex="1">
                    <mxGeometry y="104" width="330" height="26" as="geometry"/>
                </mxCell>
                <mxCell id="91" value="bool bRegistered : 1;" style="text;strokeColor=none;fillColor=none;align=left;verticalAlign=top;spacingLeft=4;spacingRight=4;overflow=hidden;rotatable=0;points=[[0,0.5],[1,0.5]];portConstraint=eastwest;" parent="pCnDFOAcOZm_-gvaMoIE-20" vertex="1">
                    <mxGeometry y="130" width="330" height="26" as="geometry"/>
                </mxCell>
                <mxCell id="pCnDFOAcOZm_-gvaMoIE-22" value="" style="line;strokeWidth=1;fillColor=none;align=left;verticalAlign=middle;spacingTop=-1;spacingLeft=3;spacingRight=3;rotatable=0;labelPosition=right;points=[];portConstraint=eastwest;strokeColor=inherit;" parent="pCnDFOAcOZm_-gvaMoIE-20" vertex="1">
                    <mxGeometry y="156" width="330" height="8" as="geometry"/>
                </mxCell>
                <mxCell id="pCnDFOAcOZm_-gvaMoIE-23" value="+ method(type): type" style="text;strokeColor=none;fillColor=none;align=left;verticalAlign=top;spacingLeft=4;spacingRight=4;overflow=hidden;rotatable=0;points=[[0,0.5],[1,0.5]];portConstraint=eastwest;" parent="pCnDFOAcOZm_-gvaMoIE-20" vertex="1">
                    <mxGeometry y="164" width="330" height="26" as="geometry"/>
                </mxCell>
                <mxCell id="pCnDFOAcOZm_-gvaMoIE-25" value="内部数据结构，仅包含已注册tick函数所需的成员" style="text;whiteSpace=wrap;html=1;" parent="6dMJGXCS0I9ftsZN87XB-1" vertex="1">
                    <mxGeometry x="910" y="-210" width="290" height="40" as="geometry"/>
                </mxCell>
                <mxCell id="pCnDFOAcOZm_-gvaMoIE-26" value="是否注册tick函数。" style="text;html=1;align=center;verticalAlign=middle;resizable=0;points=[];autosize=1;strokeColor=none;fillColor=none;" parent="6dMJGXCS0I9ftsZN87XB-1" vertex="1">
                    <mxGeometry x="890" y="-170" width="130" height="30" as="geometry"/>
                </mxCell>
                <mxCell id="pCnDFOAcOZm_-gvaMoIE-27" value="&lt;div&gt;我们最后一次被标记的世界游戏时间。游戏时间的使用取决于bTickEvenWhenPaused&lt;/div&gt;&lt;div&gt;*仅当我们自有一个滴答间隔以来至少被滴答过一次时有效;否则设置为-1.f&lt;/div&gt;" style="text;html=1;align=center;verticalAlign=middle;resizable=0;points=[];autosize=1;strokeColor=none;fillColor=none;" parent="6dMJGXCS0I9ftsZN87XB-1" vertex="1">
                    <mxGeometry x="540" y="-140" width="480" height="40" as="geometry"/>
                </mxCell>
                <mxCell id="pCnDFOAcOZm_-gvaMoIE-30" value="指向FTickTaskLevel的回指针，如果已注册，则包含该tick函数" style="text;html=1;align=center;verticalAlign=middle;resizable=0;points=[];autosize=1;strokeColor=none;fillColor=none;" parent="6dMJGXCS0I9ftsZN87XB-1" vertex="1">
                    <mxGeometry x="670" y="-100" width="350" height="30" as="geometry"/>
                </mxCell>
                <mxCell id="pCnDFOAcOZm_-gvaMoIE-31" value="FTickTaskLevel" style="swimlane;fontStyle=1;align=center;verticalAlign=top;childLayout=stackLayout;horizontal=1;startSize=26;horizontalStack=0;resizeParent=1;resizeParentMax=0;resizeLast=0;collapsible=1;marginBottom=0;" parent="6dMJGXCS0I9ftsZN87XB-1" vertex="1">
                    <mxGeometry x="1150" y="-690" width="480" height="320" as="geometry"/>
                </mxCell>
                <mxCell id="pCnDFOAcOZm_-gvaMoIE-32" value="TSet&lt;FTickFunction*&gt;&#9;&#9;&#9;&#9;&#9;&#9;AllDisabledTickFunctions;" style="text;strokeColor=none;fillColor=none;align=left;verticalAlign=top;spacingLeft=4;spacingRight=4;overflow=hidden;rotatable=0;points=[[0,0.5],[1,0.5]];portConstraint=eastwest;" parent="pCnDFOAcOZm_-gvaMoIE-31" vertex="1">
                    <mxGeometry y="26" width="480" height="26" as="geometry"/>
                </mxCell>
                <mxCell id="pCnDFOAcOZm_-gvaMoIE-53" value="TSet&lt;FTickFunction*&gt;&#9;&#9;&#9;&#9;&#9;&#9;AllEnabledTickFunctions;" style="text;strokeColor=none;fillColor=none;align=left;verticalAlign=top;spacingLeft=4;spacingRight=4;overflow=hidden;rotatable=0;points=[[0,0.5],[1,0.5]];portConstraint=eastwest;" parent="pCnDFOAcOZm_-gvaMoIE-31" vertex="1">
                    <mxGeometry y="52" width="480" height="26" as="geometry"/>
                </mxCell>
                <mxCell id="1QxGmTCYHBrR_65N0WKA-94" value="FCoolingDownTickFunctionList&#9;&#9;&#9;&#9;AllCoolingDownTickFunctions;" style="text;strokeColor=none;fillColor=none;align=left;verticalAlign=top;spacingLeft=4;spacingRight=4;overflow=hidden;rotatable=0;points=[[0,0.5],[1,0.5]];portConstraint=eastwest;" parent="pCnDFOAcOZm_-gvaMoIE-31" vertex="1">
                    <mxGeometry y="78" width="480" height="26" as="geometry"/>
                </mxCell>
                <mxCell id="38" value="FTickContext&#9;&#9;&#9;&#9;&#9;&#9;&#9;&#9;Context;" style="text;strokeColor=none;fillColor=none;align=left;verticalAlign=top;spacingLeft=4;spacingRight=4;overflow=hidden;rotatable=0;points=[[0,0.5],[1,0.5]];portConstraint=eastwest;" parent="pCnDFOAcOZm_-gvaMoIE-31" vertex="1">
                    <mxGeometry y="104" width="480" height="26" as="geometry"/>
                </mxCell>
                <mxCell id="57" value="TEnumAsByte&lt;enum ETickingGroup&gt; ActualStartTickGroup;" style="text;strokeColor=none;fillColor=none;align=left;verticalAlign=top;spacingLeft=4;spacingRight=4;overflow=hidden;rotatable=0;points=[[0,0.5],[1,0.5]];portConstraint=eastwest;" parent="pCnDFOAcOZm_-gvaMoIE-31" vertex="1">
                    <mxGeometry y="130" width="480" height="26" as="geometry"/>
                </mxCell>
                <mxCell id="58" value="TEnumAsByte&lt;enum ETickingGroup&gt; ActualEndTickGroup;" style="text;strokeColor=none;fillColor=none;align=left;verticalAlign=top;spacingLeft=4;spacingRight=4;overflow=hidden;rotatable=0;points=[[0,0.5],[1,0.5]];portConstraint=eastwest;" parent="pCnDFOAcOZm_-gvaMoIE-31" vertex="1">
                    <mxGeometry y="156" width="480" height="26" as="geometry"/>
                </mxCell>
                <mxCell id="1QxGmTCYHBrR_65N0WKA-82" value="void* TaskPointer;" style="text;strokeColor=none;fillColor=none;align=left;verticalAlign=top;spacingLeft=4;spacingRight=4;overflow=hidden;rotatable=0;points=[[0,0.5],[1,0.5]];portConstraint=eastwest;" parent="pCnDFOAcOZm_-gvaMoIE-31" vertex="1">
                    <mxGeometry y="182" width="480" height="26" as="geometry"/>
                </mxCell>
                <mxCell id="67" value="TArrayWithThreadsafeAdd&lt;FTickScheduleDetails&gt;&#9;&#9;&#9;&#9;TickFunctionsToReschedule;" style="text;strokeColor=none;fillColor=none;align=left;verticalAlign=top;spacingLeft=4;spacingRight=4;overflow=hidden;rotatable=0;points=[[0,0.5],[1,0.5]];portConstraint=eastwest;" parent="pCnDFOAcOZm_-gvaMoIE-31" vertex="1">
                    <mxGeometry y="208" width="480" height="26" as="geometry"/>
                </mxCell>
                <mxCell id="pCnDFOAcOZm_-gvaMoIE-33" value="" style="line;strokeWidth=1;fillColor=none;align=left;verticalAlign=middle;spacingTop=-1;spacingLeft=3;spacingRight=3;rotatable=0;labelPosition=right;points=[];portConstraint=eastwest;strokeColor=inherit;" parent="pCnDFOAcOZm_-gvaMoIE-31" vertex="1">
                    <mxGeometry y="234" width="480" height="8" as="geometry"/>
                </mxCell>
                <mxCell id="pCnDFOAcOZm_-gvaMoIE-37" value="void RemoveTickFunction(FTickFunction* TickFunction)" style="text;strokeColor=none;fillColor=none;align=left;verticalAlign=top;spacingLeft=4;spacingRight=4;overflow=hidden;rotatable=0;points=[[0,0.5],[1,0.5]];portConstraint=eastwest;" parent="pCnDFOAcOZm_-gvaMoIE-31" vertex="1">
                    <mxGeometry y="242" width="480" height="26" as="geometry"/>
                </mxCell>
                <mxCell id="36" value="void AddTickFunction(FTickFunction* TickFunction)" style="text;strokeColor=none;fillColor=none;align=left;verticalAlign=top;spacingLeft=4;spacingRight=4;overflow=hidden;rotatable=0;points=[[0,0.5],[1,0.5]];portConstraint=eastwest;" parent="pCnDFOAcOZm_-gvaMoIE-31" vertex="1">
                    <mxGeometry y="268" width="480" height="26" as="geometry"/>
                </mxCell>
                <mxCell id="pCnDFOAcOZm_-gvaMoIE-34" value="&#9;int32 StartFrame(const FTickContext&amp; InContext)" style="text;strokeColor=none;fillColor=none;align=left;verticalAlign=top;spacingLeft=4;spacingRight=4;overflow=hidden;rotatable=0;points=[[0,0.5],[1,0.5]];portConstraint=eastwest;" parent="pCnDFOAcOZm_-gvaMoIE-31" vertex="1">
                    <mxGeometry y="294" width="480" height="26" as="geometry"/>
                </mxCell>
                <mxCell id="pCnDFOAcOZm_-gvaMoIE-35" value="从主列表中删除tick函数" style="text;html=1;align=center;verticalAlign=middle;resizable=0;points=[];autosize=1;strokeColor=none;fillColor=none;" parent="6dMJGXCS0I9ftsZN87XB-1" vertex="1">
                    <mxGeometry x="1000" y="-441.5" width="150" height="30" as="geometry"/>
                </mxCell>
                <mxCell id="pCnDFOAcOZm_-gvaMoIE-36" value="在tick阶段添加的tick函数列表;这些项目也在AllLiveTickFunctions中复制，以供将来的帧使用" style="text;html=1;align=center;verticalAlign=middle;resizable=0;points=[];autosize=1;strokeColor=none;fillColor=none;" parent="6dMJGXCS0I9ftsZN87XB-1" vertex="1">
                    <mxGeometry x="625" y="-663.5" width="510" height="30" as="geometry"/>
                </mxCell>
                <mxCell id="pCnDFOAcOZm_-gvaMoIE-38" value="将tick函数添加到主列表" style="text;html=1;align=center;verticalAlign=middle;resizable=0;points=[];autosize=1;strokeColor=none;fillColor=none;" parent="6dMJGXCS0I9ftsZN87XB-1" vertex="1">
                    <mxGeometry x="1000" y="-417.5" width="150" height="30" as="geometry"/>
                </mxCell>
                <mxCell id="pCnDFOAcOZm_-gvaMoIE-40" value="将标记函数添加到标记函数的主列表中。" style="text;html=1;align=center;verticalAlign=middle;resizable=0;points=[];autosize=1;strokeColor=none;fillColor=none;" parent="6dMJGXCS0I9ftsZN87XB-1" vertex="1">
                    <mxGeometry x="60" y="266" width="240" height="30" as="geometry"/>
                </mxCell>
                <mxCell id="pCnDFOAcOZm_-gvaMoIE-41" value="AddTickFunction" style="shape=step;perimeter=stepPerimeter;whiteSpace=wrap;html=1;fixedSize=1;" parent="6dMJGXCS0I9ftsZN87XB-1" vertex="1">
                    <mxGeometry x="284" y="720" width="120" height="80" as="geometry"/>
                </mxCell>
                <mxCell id="pCnDFOAcOZm_-gvaMoIE-42" value="FTickTaskManager" style="text;html=1;align=center;verticalAlign=middle;resizable=0;points=[];autosize=1;strokeColor=none;fillColor=none;" parent="6dMJGXCS0I9ftsZN87XB-1" vertex="1">
                    <mxGeometry x="275" y="690" width="120" height="30" as="geometry"/>
                </mxCell>
                <mxCell id="pCnDFOAcOZm_-gvaMoIE-43" value="FTickTaskManager" style="swimlane;fontStyle=1;align=center;verticalAlign=top;childLayout=stackLayout;horizontal=1;startSize=26;horizontalStack=0;resizeParent=1;resizeParentMax=0;resizeLast=0;collapsible=1;marginBottom=0;" parent="6dMJGXCS0I9ftsZN87XB-1" vertex="1">
                    <mxGeometry x="-1450" y="230" width="590" height="216" as="geometry"/>
                </mxCell>
                <mxCell id="pCnDFOAcOZm_-gvaMoIE-44" value="FTickContext&#9;&#9;&#9;&#9;&#9;&#9;&#9;&#9;Context;" style="text;strokeColor=none;fillColor=none;align=left;verticalAlign=top;spacingLeft=4;spacingRight=4;overflow=hidden;rotatable=0;points=[[0,0.5],[1,0.5]];portConstraint=eastwest;" parent="pCnDFOAcOZm_-gvaMoIE-43" vertex="1">
                    <mxGeometry y="26" width="590" height="26" as="geometry"/>
                </mxCell>
                <mxCell id="34" value="TArray&lt;FTickTaskLevel*&gt;&#9;&#9;&#9;&#9;&#9;&#9;LevelList;" style="text;strokeColor=none;fillColor=none;align=left;verticalAlign=top;spacingLeft=4;spacingRight=4;overflow=hidden;rotatable=0;points=[[0,0.5],[1,0.5]];portConstraint=eastwest;" parent="pCnDFOAcOZm_-gvaMoIE-43" vertex="1">
                    <mxGeometry y="52" width="590" height="26" as="geometry"/>
                </mxCell>
                <mxCell id="24" value="FTickTaskSequencer&amp;&#9;&#9;&#9;&#9;&#9;&#9;&#9;TickTaskSequencer;" style="text;strokeColor=none;fillColor=none;align=left;verticalAlign=top;spacingLeft=4;spacingRight=4;overflow=hidden;rotatable=0;points=[[0,0.5],[1,0.5]];portConstraint=eastwest;" parent="pCnDFOAcOZm_-gvaMoIE-43" vertex="1">
                    <mxGeometry y="78" width="590" height="26" as="geometry"/>
                </mxCell>
                <mxCell id="31" value="TArrayWithThreadsafeAdd&lt;FGraphEventRef, TInlineAllocator&lt;4&gt; &gt; TickCompletionEvents[TG_MAX];" style="text;strokeColor=none;fillColor=none;align=left;verticalAlign=top;spacingLeft=4;spacingRight=4;overflow=hidden;rotatable=0;points=[[0,0.5],[1,0.5]];portConstraint=eastwest;" parent="pCnDFOAcOZm_-gvaMoIE-43" vertex="1">
                    <mxGeometry y="104" width="590" height="26" as="geometry"/>
                </mxCell>
                <mxCell id="pCnDFOAcOZm_-gvaMoIE-45" value="" style="line;strokeWidth=1;fillColor=none;align=left;verticalAlign=middle;spacingTop=-1;spacingLeft=3;spacingRight=3;rotatable=0;labelPosition=right;points=[];portConstraint=eastwest;strokeColor=inherit;" parent="pCnDFOAcOZm_-gvaMoIE-43" vertex="1">
                    <mxGeometry y="130" width="590" height="8" as="geometry"/>
                </mxCell>
                <mxCell id="pCnDFOAcOZm_-gvaMoIE-46" value="void AddTickFunction(ULevel* InLevel, FTickFunction* TickFunction)" style="text;strokeColor=none;fillColor=none;align=left;verticalAlign=top;spacingLeft=4;spacingRight=4;overflow=hidden;rotatable=0;points=[[0,0.5],[1,0.5]];portConstraint=eastwest;" parent="pCnDFOAcOZm_-gvaMoIE-43" vertex="1">
                    <mxGeometry y="138" width="590" height="26" as="geometry"/>
                </mxCell>
                <mxCell id="pCnDFOAcOZm_-gvaMoIE-47" value="bool HasTickFunction(ULevel* InLevel, FTickFunction* TickFunction)" style="text;strokeColor=none;fillColor=none;align=left;verticalAlign=top;spacingLeft=4;spacingRight=4;overflow=hidden;rotatable=0;points=[[0,0.5],[1,0.5]];portConstraint=eastwest;" parent="pCnDFOAcOZm_-gvaMoIE-43" vertex="1">
                    <mxGeometry y="164" width="590" height="26" as="geometry"/>
                </mxCell>
                <mxCell id="74" value="virtual void RunTickGroup(ETickingGroup Group, bool bBlockTillComplete ) override" style="text;strokeColor=none;fillColor=none;align=left;verticalAlign=top;spacingLeft=4;spacingRight=4;overflow=hidden;rotatable=0;points=[[0,0.5],[1,0.5]];portConstraint=eastwest;" parent="pCnDFOAcOZm_-gvaMoIE-43" vertex="1">
                    <mxGeometry y="190" width="590" height="26" as="geometry"/>
                </mxCell>
                <mxCell id="pCnDFOAcOZm_-gvaMoIE-48" value="TickTaskLevelForLevel" style="shape=step;perimeter=stepPerimeter;whiteSpace=wrap;html=1;fixedSize=1;" parent="6dMJGXCS0I9ftsZN87XB-1" vertex="1">
                    <mxGeometry x="460" y="720" width="120" height="80" as="geometry"/>
                </mxCell>
                <mxCell id="pCnDFOAcOZm_-gvaMoIE-50" value="" style="shape=image;verticalLabelPosition=bottom;labelBackgroundColor=default;verticalAlign=top;aspect=fixed;imageAspect=0;image=data:image/png,iVBORw0KGgoAAAANSUhEUgAAAuUAAADWCAYAAAB2S/zUAAAgAElEQVR4nOzdeVhV1frA8e/BA4KgzJMmKDhiaini0OBQTomm2WCz1jVSSzPLstug2dU0tTTF6ZbN+Wu4ak6R92o2qYhTOZQDCqgxH1AmATm/P/Y+8wEOyKS+n+fheWSfddZae+8Dvvvl3WtrQkJC9AghhBBCCCHqjVN9T0AIIYQQQojrnQTlQgghhBBC1DMJyoUQQgghhKhnEpQLIYQQQghRzyQoF0IIIYQQop5JUC6EEEIIIUQ9k6BcCCGEEEKIeqat7wkIYaJn4YoURpUEEPasa7V7eWx2Km+GefD8wx78p7LGboXsXJ9Bq7KmfDLUm9eqPaq4Yr6F/PJFBi3Vb0uOBdLmucYOvCeLvE9vYMhntT7Da1QpH3/6N/0C1EdW5Hrx1thmrC6o31ldezREje/H063TWPrKUfbX93TMaVvz2rIbCVO/1Z/8nSfeSarXKVVGOzKK1UMDr4q5ls+J+14axl2GA1+WyoYJe1lf4Xsa8OdIXLE6CMqL2fJdKp3K+b/14oEg+h4sZNe4XIoPBNH3ZReyzN9X5MX88c1Yllv7MwXAeSyz+g0mxGpz8d9riTm8ATe/l5h780145P7Ee/HLOQyADw91W0bfYqXNVcW5hG8+/Zse3vZfvnw8gHXO6fYDZecSvvk0Fa8fWnLnhzUxl1JCvSDnaMUfS5dBF0mYpsPTbI7GuTmXMKJtMdlHXSsPyOuCGvQ3/bU53d7U2n2tlfk2fWN++VcgD/9stk09R90yruxixZ5mwy7w66Qi9s0OYOwu0/bmk7PYNbARn6xwYqSd183brB7uxVs1MZksN24dHALoWbIqhbtqos96MvyVdJbc5Mocq+D21ffOMr6JL72ecuNvLhG3KQ33H1py6xJN/U0WLY8/qlwKKfOuvZGcundiwVNhmH7d6Mna8xsvfJitfn99BRxO3TuxYLw/x5f/yIpD9TiR0tPMjjmNIUgcWt1+rIJ7x4LMhkY9BmV2gn0nPybN6UXr4+af2StRxtfzNvI16kXG4BroUlzV6iAod+GuEYYQVwm0vXbcQJ93zSpnxhRCbmMutypijKeLEoCPKSSooDGltVxgM2jKEka67uDFeevIN24t5tgfjzM/tZw3lWVzwaUXdwUt53B5ba4WJc7cO0Y9P26F7FyfScn/mQfZehaugJwM24+KS/8i2nm58MeJGpqLthR/bw3ZZ8v/WD42O5XZPTT88laIEri6FbJzfTr7X1eDXgf6sFDoRt/B1pdgNcfltlK89Y35Y4ed46e+Zh6EPzY7ldn/TONz88Bc3afEH2oiIB/IlMWjcN05nXn/yau09aXdzuROvkBQOLDL9vXLOmcO1sCsak47xrz2DGF/zmbO1xnV7qXfpEUMKfsPby3/hcqPknCEktkM4MTGjTy/qb5nI2qacsHVmrI9vzLuw2wMwe3dy3tALQTmpevjGVcr0b6epOw8aO1ON7B7YZidXhMBuRC2Gk5N+YUm/FlUyKD+yp9QX+xxiZS/GnO51gbsxKOzljKyfT4Hd2w2C8gdUcyJjFTC/e6upbnVD/dxhbTSu5BmHmQ7lxLqZT/IdW5TQrMsd7792ealalGCVKvxzV8fdJEXemgsM8mFbnwQ74JP+yLucaCPuubcpgRPvQuJdo6RvdfW/uxOrqaYwLambTW2TxGPMHPpKNoXHOTHzddqqHmctT//hV//Wbw94VY8qtnLj9viye/4EPNfuQ//Gp3f9cqJUe0D0Wcl8r0E5NcgJ0bfGYbXyT/MMshlfP3OLhJyA7n1CZ96nZ0QV4sGUVM+JLSYRrgTd8yJKb1K8F0P/QNd2fyHno69iolwB3LBthTGmYPLg7h7vQYo5d8f/U2v1EC+cc5g3I1qOJ9rr/xlEFOWjKS9NoltL85jXdUicgCK0+M42nE4TzbbwAcX7DSwLoMpS+WXvVP54AJ4h87jncCzbLvQiSEtPbmc+5vZv83KYhoNYErv8dzkZttHbRgdXAz6xpYBpLYUfy8Xzp7AKpOu580ueWT/1dxYJuI+MZujd5uCPX2mj2VddyXlGmNuy8dT35gkt4v8HqeWpxhf1zP3Hh0eJwIsSzusGAPdhEJ2xqljWZeEWJfs2Ksntynr0XDi/6zKdOyU/mT92pxubzZi4YoU7m1t2v5Y3EUes2ijZXRwMfpsDw5Yz7/Mgw0fqlnzqGLja7e+mozhj6mGkh2XQRdJeL6AP/4VQOrDpjEtSnoABk5h8aj2OCf9l+nz/uN49rdIS0YuKB9BPUtWnaXPmWAi5zRiWHAJZdkebFJfGz83jVe7meZ7Oc2XyY+5K6+7l7BuTSotDwYzIi+XXcPybds4RCltuTvUfJsTx8y//XEZz58fw2vPPMT8V4J5Y87XVDlnfnwtsyenMmnR/cx6248v3lrOL/V0HfPqe2cZ37HM+H3KZkO5i1L+0uG8v1oOo+qdT8LrWRRtNZXFDH8lnSV9i4xZmAv7gunzijMXqziXG8e+xcQoH7LjY3n1o8O2DYKHMe2FYYRzis0LF7L5vOEFJfuoCQtjSPRR9tuccKvaWjx4dmW48b0nNm5izibU8ohOXN64mf8G92NCpHLZZVlXrJTAGF6zLZFBLUPoTaTxZ9c0hlP3Tiz4RxN+jdMQPTQQylLZZPZvUzmG9ZzN5mkYxqZcB/RZaRUeYxsVlISYstOW+6cdGcXqIU3YYyiLsd5f/UXTaw6z3l/QZ51Syoy0oXQI05O9x+oTVZZNuk5D9zZB3Du+K3d5JVZYEjL9ULBSzrMqCf8Ywz5bnj/LY2rn3Bo+I5t2k3uLaZ+ta88NNemWlP5ezsgH9Xep4fPw04S9rHdqio9XHhkpZq+Zn1+r46qUpOjZMOk0LYzH3/ZzUhnHPkd38Ox7o+noksL/Zszl27oq+RU1quFkyoGdO9wpalXEmLGFBJ11ZW2R+aul/Puji5x+OoTQwcrX0sNl3DQhi2XNTa2a3pzKOE9vBgwOIXRwEEdcc5gwoxhfQ4NOjzJr6Uja5x/ko+eqF5ADcHk3+7NdaONnpwCz0QCmdG/J7m0PMm7bg4zbNoltuiBu7f6asVavkWcfBmi3MvHAQfI8+zCw2SGWHjhIXtN29GyGMSCPyFmr9vEgz58s5tYe7/Jks2rOuUJ6uvoXc/mkm0VwasjSJv4Mj72SSyv0+NxQapNBf2x2KkeHa/hEPTehI/1J8svm1ddLlX4GXeR3tbbacP4iNniAMVOsjI/TRR6eWsqGwSGERgezN+cSve8vArciIltrSDxQUQmHcqGgzy3m7v8U8dPgEEIHt+SbM2ofapuFi7O5tEyZQ9uF3uRqigm7zawbt0J2bvqbsKOmub4W70zb+3TMVpu4T8wmyapN6OAQtW5cw7Sn1fnrlADZpo1a+16WrbW5qMna1ZTXgE9eC1Lmf1q5wJlq1och4HZuU4IncOOkFPqfb248ro3a5vK5uk8Rj8xk6aj2FBz8mKlVCcjNjqtfSCn4FtEtVI9Ph0tEW70+fm4ar97oymrDHO8J5pBrFks+yTdrq8e/73l+iXRl0uAQQh/y53xgNjNfKXV4HktWpRDt6qu8X+0jxV7T42uZPfkrjvj1Z9bbE7i1WinzH1n2/Hv8lN+Rh+a/wn31kDJ/9b2zjG/ejLdGqfs70xfXoSn8MlkPNGbpb66UhRYwwywRObx/Pr4Xvfj43+YBeSM2Pmj4/ARyvsvf/DanhKZ1tid64lfvZEuihrbDh7NmZTQLLLKnSm3tuJhNLE/IQ591ivdjNjIuRtlmGcBoaDs8mqe9EhkXs5EnVyWS06Yzr0Qrr0WN78eEbnlsMLx/0hFye/YxG8+J+168kctfmvpfnpBP2+h+PN3V0CSIYVF5vD/pMIlOQUQP1rNh0mESnQKJiFb7eGkYQz1N83xy1Wn8hker8zAFzJkbzcep4k+fGmB67vnV1Md+D+5e3oORQNm+Y+xK1ODTJohuxjepf5U4ddoiIO+e9bvax0bGf19Azwlm+1spDVHj+1rs77iYjTxhVfdvW9ahloIAZzLywdvdbJ6G6TbFx9vsvZqm9HwqlIxYda5b0/GN6mKca9m+Izwfs5FxE3aRoCt/vm2je+H5y0Y7nxHl3MxXS6mUz8hhEq0CfI23OyFoiOwWgLfxvJtN29753aexPa5OQdy93DAX9bM2TDl/jqiRz5G4ajSooJx4F/4oKuSpIUWk7HYmK9EZnfH/ay3/GOvLpPOm5u/s9eCSdR8pfgz4RxNOAeDCkl/dcAsrYownMGgKSyb1xj9lGy/OWEV8sfWbDVzo2PlL1gw0fH3G3DDr4LuAn0/tpTh0uO1NMZe3s3j3bLYaN2SzNSvZsk1ZKvHJG4z/3vXnco6avex9w2Bucj7KerMbR3Vn4zh4yd/+hcCVMtxkaVU77tymhGbZzhxwLmFEeGN2xyt/pnDpX0Q7Tw92fWhWVjLHlG12ua3UdFXvXMIXT+jwOB5gdrOjGkBnOyuZYnV886y1+/iL9PBWAvFySzjMg1u1D42nCxuMmW8NhzJccPIp5R71+2kTTVlzQ1Bromfhuxm0tJprV3+zD4tbIVvuzjNmvMtlqAW3dyGhLcXfGxq1SycpLpmkuGSOjijhl7dCLPtU9yn7L/s3ro4OLgbNJS4ftT+XgVMW80yfAFL+O50Zq/bY/rxUQbNeJTQ57sMhl3zu7W32gm8Rj3crIWOXh+mGz3xnHv/Yi3w/y7YWmfEsV/Yn6fEKcKxIrdmwi/S/wZWfljuaWTcPqt9mQrUi8+OsnT2Zr4740X9WLK/UZWTeO5+R7bXs/7ip6WbRXe6s/8uJljcWEQxsnOPJ8ZJ8uj2irpxCKfd2vETeSTfWFgBc4pk+RZzb7MNkY7ykBPMebQoZ06RqUzr80atMnDjRfpYc4O/NLJw2kYnTzLPkBobAezNbEjX49ryFNStNQWxVmGc9yw6kcUoHPgE+oG3F4Eh3Tmw2q2EuPUNcQr5Z4FrG1/PMs8R6EvanYxnf6Tn5myHg1Fv2Bzh170jv1heJ/z9TUGoIkNt0DMW8nKMqGVFLGqLGtaJ1ViJfGDPBeuLXnDG7OCjj2/8mkuMTQJQhEFSz1iePKcdHOyKMSM9UvjPLEpd+l0hCjgdtuletrERjPk519sjbnRCUQHPRCrPgVZ9HtvHqWs+JTabzU5aST7mxd7mUANtw7MsOFVj04dTSHe+yNI4azk1pEn8mavDxtb5M1RDqoyc+IV09r8YelPNrUY6lJ/6DP+wcV/PMuPpZ07gT5NBxrMrn6H+8/9xEJk6ULPnVrEGUr3QOKEaLO6Dlm2NO9O/emB92aKA9QAk3ROlhvYYhL2WwbECh1aQd+F/FUy2B+WExk889yqwJA3lnrj8fvVFeYF7JjZ4GJd/xV+67dA6Cs1Zzuq3DIp5oaRnuUXqUKtFGcP/AL7nfYuNlauXe0nJukBwdXExZdhPixl/k1T+b8Z5zJjP9S9Vg3YUDqGUnmmKL8gql3COEO9WgvZ31jYpuRUS2huxf1WBTHf/Ef1y5PU7pR8kwK7/c3Cfar8126V9k6ltbqPTxf+alKEpAbZ6Rtt4/fZaHqS5enVcj0kmKM7XTZ/owdahSiqPU3jfmFzs3b1rMTb2QsHcjrL2bPO1y5MbVsqZsNgvI82N9CI1Vv/l5CucemcnEO+cz1+9jZlY1MM/XkpKjp3NAKQ/cWkT6Hn9SbtfRp38pF3xLyDnTCCgDNGQm25ljo2LlJtHf1alma80Cag2TnwphsoNT8QgvodllF07aueHUvn5MWnQ/nYr/4Ivp1S0/UW4cvT04lR1vzOEK7h2tpmK6TU4hyfogGX/QGvPzSSfG33qR8f9uxurRedwa0ITNUyxLU1oOSyFpmFUfuTW7ko/jDCtOqOUQw3owclNVbgTUk51ltndlmSx7Wf1UaT1RMunDWTPc6l1mf+63W7qgr2Ixj6YpPScOp6f17E4CTj4EeOvJPl7VAiE7w/iGm5XyGEfB8Gul7EAap3LCiBoUyopDycZAfql5EOcUxN0rh3O3VR9ZDs9CT/zqH4F+TDDss50SGJ8AH8A8W64h1McDdInsT9Gg0/gT1FXJPpMDbbr74KRtgrc+nz8OAd0dntAVKUvJR+fUmohoWL8J44WMofymLCVfmWu3UPw909nyXw1t/xHAPV0LjHN1HgLo8u3cCGoI7tXjYHHBoWb69zk40Rr8HImrQ4MIys19P88f618/AIzJZcmAUg4vb6nWkCvbjo8rqbzTXBeOGspUjnzKG8+kMWXJSMa+9xItqllTrshmXfJR/hX2OAVmf4H3Dn2DJ1oU8suep431396h81gUZr+XcpUe5asd5hn32lN+AKkhJws+vlXD5oe0fDvRhTfDSlljrCfXs9C/2LaG2ZpVllsphdFwQg02DTeZ/nLUjacaeXD07nzbDLOhzMQYxCp15s0yfZj5IbgMsrMPhrKX/7M3N9uA3eFguZybN81V9SZPeyoK7A1/Jcja5Vfh+upHP5vJM2lTWDzqcd59qYVFTfkFu6ur6BkWXMJlnSsHgUEAjUq5qzWkfqfhbZ8m/BTm4C3Yl11IPeVY08rknXLmwpAi2vTG7kowFtqN4bVnbic4dUf1asqBKwnqN6a48F7fEjq7AsYlEUtp66vnQoq2CiVELuxfEsiozeUvmfjW/3kz8vWL3NW/KYHd89Am+TLXqorAVIfekJSx7q807mqtZg1rbEnAimt2zUsXDG0MSxNWbZiK6rKdlFpq8+Csmox12+U1KMtk5e40Vg8OYKRTPi3C3ck+nmrZvkaWJtQTv3oH8avBWCY0oR8s/5EVh5L4M/FGhlrvr1mwW3bISclWO/nSIyyPX74u4NbRQXTLdsdLl0ey3TFrk/nFm53adEDT3Z/WujT2HcinV+6NBN7gyOL9VheNV8JQk18DnyNxdWgw5SsXM7XkVOkdxWx5KJcKHy0SVcCs2wtJ2+VhdaPnDyyevIxdGS0Z+M5cnopyqcaMFYW6vSRp2xBWUcLeeSzPtavasnu688dI1kYw8sbKV3jpPO4tYmNjmT02okpjmFNusrQOEvV09b+Eb+90wv5U6pxLTjpzwTef9l6NObZDqZ8+lOFCozaFxnpru8xWFHlsdipvttWQaxaoKxlrZSWX/Fhvvjmtt6jhzl/jxhnNJTr2N1z9KA8aurdVY35doWSwbfbBuYRv1mQQmulNrL111NWsuHnJTvHPWnQW49gqOelMrtNFhr3uQC20db26OneL0h0H+jBfjcWoKss/blvMlKW/kd7yTubPfYqehh+cLFf2J5XRbpBZ7bdajpL9Z2M2AX9kueDcLpuuxe58swvOf96E1Ha59PVSs+NqHx0fyOFVQx/uJXz8eA5uxz1t1jevrgu7ncltdIkbDefG6mFDRv0msei523E/9gXTqxuQtxvDa0vup1PmDt54uRpZ9k/dOFmST/8XzOq2H83j1gBnTv6qdewGy12NOZJZQrfHLzK+ot8vu9xZ/1cpbW7Jp18bLfs3uJpu+lQz6S2HZbOkBhbAuHGs8rvmrbE32m8QPIxpC2OJXTiNYc3tNzFy8iOmVyD67HTizUpJ9mfkV79MQi1DqErNLk5+TLjP8ia6yijZ6aZEPRBhWyMNmG5sDVDnYX3zqSOUUocc3zAeqmT1ktLvEknIDaTTE4GEe6bxi1lwWbopg0SnIEa8GFpBD1VlXfKjltG06WxZuz/tRlP5TdlFsnM88O0eSFh2Ov/Zd4xduQH08KecjHNtMZSEmGrsx8VssgjIyw4VoNM0JSoyQCkDKsti7ykNPXoHgC6fZPWCUmNWpw4aop7sTKTV8b8yVfkc3cGz78USGzuXmF5udl4XV4MGkCkvpb1vGZXWZKx156chFxg4IYWkCQDOHNzoQ+rQIst2LTPZbiw7cOageWbdwhE+feMZ0qYsYWT/YbjHr6visoiqy9v55NxgFrXzoVi9qtCdjeNgy/Hc2vNLbgW1Zvwgnm2qEPyXfMQbP8KsfmNYEzzGtN3OCixZGToK8cG38xDuCj7Klr9tu6uYkjG2XgnEWOetNwTgatA67RKtPJsag99PXguk64oUixVGzFcrKf6hKQtuy2f2A8kkPaCUgkz/UM+rzxdYjG/KWGuYNtWfyPUZPLYVGOrNa4VuDFzoTcK088ayEn2mD1OHmFZ3+fZvF2Y7XbRZ6aRVOXXfdtcQtzOOYSzDSjLFPzSld5sSjt5t3sZ2dZb81U3Ze/vfprIeQwZ+t3JcyzLsl9SYK/7Bg2336LhXPXbm47iPK6RVmQefOPrgpqOfMfOZNKYsHkW/YR7s+U8eoGHy1GBarvmbZXFZLFP3JWNnMJFztIChVlljDNLJcmX/2QzuDnVSgz8Nk59qCatSGB93gfHqOxx6IqeZ5pOzjKuyKNKU41vcTHlAUZYbdy3x5NfJ50nqC1x2ZcfcYDImpmH6L6gdY25rT+aON65snfKBUUpQX+11yhsz+F++JLz+N4eNnxH7WW+b0hLjEzW1PP5oMB9/+jevrjO74ME28/3WPg/GPZJN2yR/eln1/9ZzN8B7Zxn/ZbJF+YJxBRZ1tRZ/Y4qmSB2v8iy9w2xWO1HYexpj6foEtrQfxl3G0pCqrFZRxtfzNsNLw6zKNUyZUKX2O4y7zLKkJ7YcJnFoFYLWskyWvbKLSXN6W5WWGOaq3NgaajYP/cnfGb81kFVRVn3ZKYMxHJeyfUd4YRUseOoW1pg3sM58l2Wx91Q+E3q0JmvPb5YZ8dLTzJ4Ery3rwpqVXcwGMWX6bct51LbGcWxXXjHsq7H2285cLbL8atY3MtKfPcuPALDurwJWDw0ga8/JSg+5erBsg9KeyniV/kXBqIyvFx6mg/XxsJ4vgLHuXL1AigzDSy2DKl0fz3iiWG1eKlXVv0hYr6wD6uelGp8j/sfRU8Pp2NGTVl274rZ7N4WOzkM0GJqQkBB95c2uBsqSiANLfc1u9LxedGbcWxPooY9n6WsfUcXK9evWY7NTmR3Z2HY5RCGEENcms9VoLC4IjSvd1NTTOuvBHc/y3uiOFB76hDdXSlB+NWow5Sui+ppHD+JGH8g6FS8BeTncJ2aTtNVUDuMy6CIvRBUblx8UQghx/dJG+xPG1fy0zo48fGs7XEghYa0E5FerBlC+IqqteTTTpt1FuFshJzfNZlHV61auG/mx3nzTxbzExrQ6jBBCiOtEWSbLv05kwVN2ynliN1XxgUoNhJohd8k9xCfTVrJbIvKr1jVUviKEEEIIIcTVScpXhBBCCCGEqGcSlAshhBBCCFHPJCgXQgghhBCinklQLoQQQgghRD2ToFwIIYQQQoh6JkG5EEIIIYQQ9UyCciGEEEIIIeqZBOVCCCGEEELUMwnKhRBCCCGEqGcSlAshhBBCCFHPJCgXQgghhBCinklQLoQQQgghRD2ToFwIIYQQQoh6JkG5EEIIIYQQ9UyCciGEEEIIIeqZBOVCCCGEEELUMwnKhRBCCCGEqGcSlAshhBBCCFHPJCgXQgghhBCinklQLoQQQgghRD2ToFwIIYQQQoh6JkG5EEIIIYQQ9UyCciGEEEIIIeqZBOVCCCGEEELUMwnKRc0LHcn0d2fySJv6nogQQogGwyWKp+YuZsrA+p6IEA2TBOXWogrYszmZpDjl6/DbxfjW95zq2X0z04zHIykula8GVNQ6kvFPD8L/zK/EnayrGV7DIgvYs/lvvhuld6j5CwvOkRSXzK7ny2p5YrXs/lyOxyVzZF4x/tXtI1L9Wf6ggHbV6qCU1R+drXwONTHXK9ErhvmxscTGxhIb+zoPhtT0AK488tpwVr/RlggH3xE4pg9rVt7Fvx72rOnJ1Kmmt3dl8cqq7buNgDbMXjmcNYtvouqxqHLs16xUvyroQznmw4md3Ly6M619xfF8EX+e9nfP5JFqH1Ahrl11EJSX8u+PUuwEt8Vs+S6Z36aqwcOYXI7HZbKsvn+fxDeh57AQQgc3Z9vfmtoZo28eB7+3E9yO13EmLpt3tMq3c5YmkxRbhLZ2ZuGwr2cGEjo4hNA5PugqjA1DGTn9YW6+9BsrF28jo64mWAu0/VfSa8aiK7sgi7S8wDN8WQZvSuBnej2T2BtMXQwekI9fgTvbdtTSZ7GKXlhwjqSvL/Csl+1rg6dncCrOdn+rExQPblVMo4oa3J/L8bhKLlbCSvC+kh+eyGK6+JdxIU1b4We50rnWprDRzBjTlbyf32bixIl8csiD2555lgHeVezHI4ip75gFf8tu4fH2tTLjK+cRxNR3ygv4nen/zB2m/TD7qvlgVRnrigL2ShXx2eyNjIvZyMs7smptlLqUt+5dPvq9MX1iplTjIkWIa1uV/suaPHkywcHBDrWdMWNGtSYkrmKRg+jZqpS/1sUhSXI1oNY2YfOTfkw8a6dBZAF7ZmXicTiIyLEuZKAEvc++e4Fnxzfj/RzoHFCM9oI7cTmOjbnghRYsqMmdsFBKez89eYmurLUzn7j5/oTPRwmYnyzhv+XttwOMfZVjcKtiGl2o5GLlK0/afXUFmdqwEry1TfjvVxXnLiqba60K8MPbJZUDvyYDkJ6po7irN4FNAZ2jfbRh9uyO+B7Zx7gl51GCzdt5bPItsORXPv6r6tNKW/sb49ZW/X1XroQdS//HDpQs91sPeLC/mvsAcPGnQ0z56dCVTSn9JK/F1P5vxPo75lVVTPwX8fSffwe3PBLBts+O1veEhGgwqpxHev/999Hpyv9t7+rqyvTp069oUuJqFMrIARF4pu/jg21Xc4685nQOKEZ71pv37Aampax+JhuPw0H0e8nFmIldsNab+2blMrB/U95fd1kJgtO0DsdXtauMFt5lXPi94szxC1F5NL7QlGN5tTeTql6sVIcS+Deu1f2oGR74tfGGZB0Bft645KWQdtHR9zrT//5Qgs7/ybtLzqvbStix9FdavDaQPoOb8/Ff2bU0b3HdytvMjoNRjO0xkFqzUw8AACAASURBVIGfHWVbfc9HiAaiykF5eno6paWl5b5eUlJyRROqWDFbvkulU2PD903YNM6PSedRyl/G5ZL5/Q30edeU2RryUgbLBmj43tCOUv790d8MDDb82duZg8uDuHt9VcsD2vPYrCn08s9h3+pX+OCAbYuAwc8x/e52OJ3+nnff+Y6Uqu6uI8brOHPvRYyzPxVA+ERXSlHKXx5u68FXw3x40XjKSln75Xl660zt6JvHwRnZeBs60Xnz8oNN+dKxMmaVP/7ejUk/svuKsuTa/iuJvC3UtKHkKCfmPo/yh1t3PEd/SMdOpuxnWcZOjiyfSz6A+2Q6TLuTkm2ruNzzGYKaKW0un/iUvV9+bnyP041z6HJPN1yNW4rJ2DqCU3tt+2/7+ve0VXrh4t7ZHNm628E9Ka04oL4/n77Brvz3VZcKAlxTEPz4gnM82/kyAHkHLQP5wdMziL2j0PjDfD7uBnovsszuWrfhrB8Dn2zC8YraXPBiwfhmvD8ol+NP5mL8sRt8lqTBVm2MwbGy31zQ2gTMLyw4x7Pe3gyMK2GTsT9nDq0IYsQ6DUopTyqDgsvK2Y9itmxIpZPxxGWyLc7wb1M/L1RwrMrvy3oulQX+lc0V9S8GZsfNwOrYV3huIgvYMyuXtH8H8dMt5437ZWyz+xCn7ulK1yGPcG+wB7d29SD15w1sd/QqzsOXm0KbUJKSj2W+8jLndAW4tQ1gIEpQXqIrIvCZO3ixcxOlSVEKX0w5qARUHkFMfaMHXZpZ9nH+p1/55+e5xi1Nb+/KWw+HYGhWev5P3p11wnJsNXNvquIq5vDaOBYesdp+++2suR3buVTCmEH/NI024wz9Wc3Vag6FR/Yx0XjR4sojrw3kDuNEOvDiyg6Wc91he0zs7qvhrxKGY2ozloP7Yzymtsfcdr6q0mx+NPsrQsXnRpnnQ77JvLtcz4OGY2PVh+OKOXjwNLldmhMYAUiyXAigGkF5/VEC8pCjQXR72YUs1IB7TSbLxvkxaa07Pw25wMBORYTThFMAlHJvxyIKDwTyunlAXurLgMFqmzG5HJ+QygaqE5jXs/E6ztx7ifh5Idy/HQwB96lYJeB+5Wsf7pqRTeQ/fGCF+p6+RXTwdmHPasuAXLc+hJvUNnOWJvP2l0BVAvPQG/B2zUeXllt5W7sMAbEbGVuHcGpvOa+3O8eJNx9QgnSXaFpNfIZOEzAF5rjgP/ApMrYOYfdeQwD+AOE9Plf6dJ9Mu3tu5OLWIRy0GSOf3G8fYPe36sVBr3yzC4KqUgJqj+BUEuJMWw3B2wtReTQuN4uuur+QNq7OFEadZ3R8c0JfcFIDvQvMukEtDbk/l7m+nvQa7E+GGij2CSzFH1Mg+sKCczwb2pQFD/grwbNaNvPx84ZAUg1Qi71MbcypZSBK8KghrsKyFGW/z+90tQj4jcF6cCbb7vNiwQMhvJ+jzrdXCf7rXOg2PQ/fDS0IXXdZCXg7FdEO8wsHF+66O8Q4/7L/2Q+Eh50PJvQFJ2W/w4oY4+ViuU/mZUOGgF0tuTm71/A7oJgBbS+T96f9i6rBlc4Vm/IZ40WJWUBe6blR6+JdHzjHuKQAIge7kKEG+wtGuTFi3W5W/qcr8x/ryoBb8jj2zT953+GI3OAyuqx8q20lHM0sRL0iBcCt0008dP5P3ok5wVE14Bw1OZ1tS85DXirvvrjR1NgjiKlvdMPPrEcl6Asiee1GJWhVg8Wpb2AM/gyBobOxlMacWgZi6PugdfBZBVof+j0KPy7ayGt/KTdJvn3bjTyeoAaYxpITZY59LN6s1Hl/Zh6o2gTbmB0TQzvbaQSO6c6dugTGxeSaHaOb+NfD+Q7vm7HExs4xt5yvyiOIqW90xWmLdUBe8bkB0DbvwItvZKvHTWnTd0xb9trb/0oUH80gx6kTvi2QoFwIVbVu9PTx8SEoKMjuV20Z8lIu7Yu8WD7XxRgkfT/Pk78uFXDzA2WAln9834xLLQt43nA/T1Qxnf21nNrtrLxnTD63B7ux6XVD0A6sdeenv0sJ71VSxZv6/uKTNyYycaL9LDlAetx7vDBxIs/XSpa8lLUDLpK7x48Htxu2aRmzvSn68ALmaoGdHmw5CWFdTDeL3tc/H+8cd9btUL6fc1823okBDFxh6vmVr33QeeUzqn8VpuPvj7dNSrAK3J8kuJMHF/fOsROQm71+8CtTkFy8ieT/7qfYtwNerQwbL1v0UXY6lSKbzlzwafPwFUzWAWpAfWhFS+UmWfVLCSLVLHqmbcCn1KE7c3avRr2BsISC+Oam4DPRGV1pCTf0UK+WvvKkmzETrATElvPI5anOjdk81SybbXUD5AsLMpSA3CLjbUspx2lS8YVEZCm+WmcyTltf4Kpzs8msm8TN9+Kedab32Ts+pvk34YC9Wu+vPOlvHqjbZOyVsqGgVD9GmWXQlZIbF1OpSmQpvlrKvcnT4bka+rcTkDtybgyfAW1SgN2Mf6+Y+cQ+1hV0OorxoGWnm/GmFzHzY3m9hpdhscic5qXyxb4s3MIDHLxZz5W7+4bgfOQPNegDKGLDzmQKAgLo0d7Upsn5P1lahUxx9RRz+BtTUFpwPp8LtTyiPWlrd1sE3xf3p3GmVifiyiNTe9A2xfw8OHJuVBaZ8SK2nchC6+NOi2rPpxHegbIMixAG1cqUL1q0iDZt7C9C3a9fvyuaUIU8c5j+VQ7WFevnDP9Y68bJh3LpO7kY35ddeOIBHUF/e/OQRQa8gOg1yURb9XExtdZmXau8ep4nMc56q4fxX68caspD9+bwxYAg7t9exIRel0hcH2iZAQ9P55RNHy5Vm0hGBrpL1Vt4zuQyRZkVlYeU87qTN67+4NByL/lL+HMhdJj2KL1ef1Tp1aq8pSYowZSzWebVXHm12aXcG3EJ7Vkf3jsLIwKK0Z7143HzIDOsBG+tM/vs9asGxKd2O1sGm1xm2AfJJBkbKhcLSpmGISNs/+ZN87k5VN9e3vzUIPf8Tg9TABpZTBf/Rpza4Gx5HMrbrnKs1lvZL5uMvbqiyvn/mW+3cwwcvMmzsrlCOQE5jpwbgybsfN8sIDdk4MNGM2OyB6k/v82bXybTK2Y+j3W9l2efTqDEJQ+dw4XljfD2dQfMM7PORPi5UZqdwTkgsLy3at1p3h5wsHzBrVN31qzsbrmx1LJmvURnXUpzDbMp1QG4TG1dkgSO6UZfJ/P7B0wcOTeU5nPe7Fxf+c2ll9GlXTdnW4hKVSsoHzt2bPkdaq271PJXlhMD/UrxwpTlJqoU30bOpNpk1CqQ68X88c1YVu5f9VxY8qsby7oXMcYT+re9zLkdrqasOGBRh15fdmrJnlGMfztgu2nzfS2K0eiasP+y413l7GlOt9e1lPuW1U3ZPeAiHfuV0ii8kDCNB1//26qNWR16tSWdRVfkTotATxyLjmtQmY6iqgyZv4Q/31yi/Nt9Mh2mPUqPB6nRwFypR674ZsdmVmUmSp15Iw6tcON4OUFwhWUvNgGx2ke5ddUmlS375+hNnuUGzPaC3PIC+IouPHDwJk/1AiXN7u8Xy0z+4Om5tHeFdLNj4PBNnpXMtbyA3LFzo1ykFR0M4I1y/zphCr53r1xBixmTuaNLJOQd45sDDpSx5GVxMKmACF93LEp7rWrNu5X3fqsgrTJVrZe+pnkEMfVF81VvqKAE5co1vb0rr/Qu4Ksp9ktN6vrcuET441Wm48i5ytsKcb2ok4cHvbPXg0stc1k00pSeffEBHUH57vzg4PrL3+9wJ9M9hwkzKn6Yz/fzPPnLNZ9BzxfQpsiLzz8028W1bpy8VED0mwWEV3NfTNrz2KxYYmPn8OTN9lsEDH6OBbGxLHpxBC0tXnFl90kI63eRB427r2Sxc4678ZVDddxavv2rMV49M/mywof5KCUtnu0K+eKmi+TuacbLZtH3K4eaog9PZ9vTjoxZkQwydJcIaNOLaj3IM/8Lcs664D/4Y1q0quD1O83WDneJJuTObjif+oFzZ6o57fwvyLET8JRlZFHk3AavHtXptOKlA8GF7Sca4RFWxBjDet9qnXDJQV+eXKexu0b24OkZTOjsxKFNblYBnsKmBAMtf2VqLMex4cQ5nRPNe+fZXXvcmnIhUf5+3xtxCa2dmzyVINfFIsi1t812ezFbltlZ57xZKYMrmq8aLCt/qShl9eKLZvtXgn9r5Yds8PQMYnuUkVdqp+SmWTEdDX90uj+X43bWW69oruUH5ODYuVEvhMq7YEo8R3axBx1vHYJSqJLItzuOkQfgoS6LWKkSdnyVRGrzDjxjXMfbmf5jO9HFJYV15QVpAW14pr8X5+NPO7hyhlLq4NapM9PKLYsztLmp4ocO5eWQcaERAW0CanF9cEcodfda6xKPalOPe7PKW1ZZQBumPxxE8np7N8M6cm5qmgs33dSappkn2S+JciGMNCEhIQ6vsTF58mRiY2MrXH1Fq9Uye/Zsm3XKlVVQzFYYsM56q6unWJclXzwQRF/1xk6iCtjzRiZBFsl428z3iwvP8cyNlzlntRKLwnoFFzBfgcVmnuXN94pXX1FXQfExbbHOeiurp1j36sKeeUHqjZ3K0zYX9L5k2cQm813E9u/TCddYr8Sisl7BBcxWYLGdZ3nzJXI8c59oR+q6+Syu1rKItqufWK6+4kfQE5/RyuxvvRalJ+6T6TBtMI3MV0kxrMiydQSn9tpbecVqBZdy51KF1VcquhHRyHL1DuuVP+yuDlJBPbahvz5p1rXH1uM4OJYDq7MYs7zlrTJinK+9uZU3X4zHT/k5t7POu8Xr5R0X832y3F+L/bjgxYJlWh55UVnhxHhMrMewczwqmqv5CjAWLPqp5Nw4st572GhmTL6DlsZqs1R+/uwIre6/g5Yuqfz89pt8mVzOe81Zl1FYrGZiu0KIxSoj9pRzM2bgmD683d8yrWK9Kon1KiB2xyp3vvbmqjBkgk03NZr6tF7T3N48bY8L2K5sYpqr7X4YdthUl209TuGRP/jNM4KOiepxs1veYj5O+ftrOq7lrL5itVJLxedGHadtlsOr3FTIJYqnZj1G8yOxzJR1yoUwqnJQ/umnn5KbW/5d4S4uLrzxxhvy8KDrUigjpz/HoCb7WDTzM3mAUF1y6EJAiDoS0IbZs9vhZLM8nxAuRD01i7GdUlk3ZbGsUS6EmSrXlMuDgUT5klg//3P85z5BzJQ05i/eVtfV5dcJJQvsvfMG42ouq5/JJqjAiwUfSkAu6l7T2zszqWUyb3+ei+GBRDeU5vJjggTkwpLHqKmM7XKJ32IlIBfCWpUy5UI4JHQk05+7ifPLZvKZpMtrh3XJSHnlFULUCasyimo/VEZc01yieGrWw7htn8JiiciFsHHFQXlwcDCTJ0+WchUhhBBCCCGqSf7WLYQQQgghRD2ToFwIIYQQQoh6JkG5EEIIIYQQ9UyCciGEEEIIIeqZBOVCCCGEEELUszoNyj09PRk9enRdDikaqIhHZrL0pVF4VN5UiDrnPeBZ5s+PoVd9T0QIIcR1QzLlV7E5S5NJWnuRBzWVtwW4b2YaSXHJ7Hi6dudVqYFTiOnTmN93bCavJvvt0IH5K4fw+kh3B9/gyfi3hrNmcU/uC6nJidQ1N4ZPG8SaKu27rYixfVmzcjjvPuVX9Td36MD8lcNZo36V34d6zFcOYFL3ak+11um2b+BAXlfGzBhNWH1PRgghxHWhyk/0FDWgbx4HZ+RxfH4Q92832z5ex5l79Xw9zIcXSwGK2P59OuHGoNuDr4yvNTSlrP3yPB1PNKfb61oul9cs4hFm3t2e89umsyq+uMqjBA3tzqsjm2MIPS+dPszbb5/mTHWnXYuChnbn1SFadi7cw9fJVi8GtuTll2+ifRPrd+WTsGo7y/bV4EQCW/Lyy51w2fkzb67Pr8GOzfz5J9Nj/kQJum8nonZGqUPJfPn+N/jNuJenY84xfeXu+p6QEEKIa1ydBuVFRUUkJSXV5ZBXr755HJyRjSa+OWFqkDtnaTIPbwaqGZh/PTOQr2t6nlU0cGAPAi4e5KPNVc+RR4zty4u9G5GwaqMStKqB7csvU83APJfVr25kdZXfVwPSUnh7agpKlvs2hjmfuIKLi0I2LvyBjVc4paMf7WTcR1fYSaXq8ZhXlW47Gw7cyss9+zM6bDffJtb3hIQQQlzL6rR85dKlSyQkJNTlkFetOfdl450YQHezrPMrzzRnV3Yeg14vpVG9zq6aIh7hlrbOJMV/QZWT5IEtGdHVjdNb95iyyGkpvL3yBBdat2ZYAy6FEFev5O9/4VhxS3oOlOpyIYQQtes6LV8ZxJQlI2mvTWLbi/NYV0t/0a++Inq1gZx4LXqL7VoSs6B3u0Lu1zRVNmU7o38jjaTel9Q25iUu1uUvisR1IfRfYbZBzcp7G9rpvHn5waZ8qa+gDS7smRfE/dutxuh5nsQ4QxurcpsWvng7JXFoW9Wz5EHdArihSTHHUqxOli6f7AJ32nT3g58Aism66MPL7w4wlobk7NvF1FWZSj9W5S8AFKWzxaLERMle39Ousfp9Cae32pZ+KJn7ZqYNOYksf+kIeVbb7/rncO4yNDGbS8VMGfT/Sw3hMUN/VnO1nINV6UuHDsyf2hZ/Q5dDB7BmqOVc422Oif19tS23qWqZjdUxtTnmduarsixRquTcmJXqfOMVaTw21S5z0h3gSMoQwn1aEAZIslwIIURtuU6D8qtD9nnb2uwDmY152PweuvB05vl48/KQQL7UK3Xd9y9pwoyJrpTiyoAh5ncwKgG0RYyuBtu69SHcpAbqc5Ym8/aXgCEwH6/jzL0Xyd1jKqUxMYxReU15RKA3jXLPc67qpeTq9PNJz7DalnaBrHwING5wJ/L+Tpzeup1x6/PVgLMLk7orAWTq1n08s9UUSRrqvk3UoC/gHMtjlKBVCRZv43UMwZ8hMCw1ldKYU8tAKqwpd1Dj1jfyAIeZFXOaM2q99h0PtWavGmAaS046dGD+1OaWbzbUeVdSU248JoZ2Ni08Gf9Uc069u5G3k82O0WM9uS/D0X0zldjYHnOr+aqChnbn1X5FfGIdkFd4bgCcaT10AJNPq8etQwfmT23PYyPTq1FTr+NkZh4uLf0IQIJyIYQQtadOy1dcXV3p27dvXQ5Zjh9YPHkiEyc2xCx5FVlktbWM2d4UfXgBcx283DKUyQw0y5y/8rUPOq98RvUHKGXtgItoTlmW0lRHC1/vOvjAWWZOU7ee5FCGmkl3RIdQbmtXSsJXatAH8GcSPx8vo3mHAFoZ2zhZltLUlpxEPjQGpcWk6i5V8obakMvq2ebBdyF7j2ZRqz86HTrw/EhPjpmfB0fOjcoiM/7n35zIcMY7wK3683HxoYUswyKEEKIW1WmmvHHjxvj5VWO5teuUT/NSGmEZCN/sdwmyPflaD53LfWcxobcD28ttYCk8nVNx1hst86U5mdalNFV3LktHWdAVdODqToA/YJ6ZDWyGr3sJuvTCCt/q5tOUVmQ6WL7gTuRTw1ljtfXSafPvismyLqW5htmU6gAUpdfSaJ6Mf6QVeVt/tnPR48i5gcLsi2bnWrm59IoUZ3NO0uRCCCFqkZSv1IedWrJnFOPfDovA+b4WxWh0Tdh/2ZWSk/CwXykai1NUXq25NReSfqrCfE4FED7RldpeafFomo7Lfbxp4QJUsYQldX86Zwf549vSHfaZguFya82tWAZplamFZQmvYkFDuzPRfNUbKihBuWJuDJ/Wk4jkBKbaLTWp63PjTRs/D4p1R6itSxAhhBAC6rh8pbi4mIKCgrocshyDmLIkltjYlxhV/WetXAFXdp+EsH7mD/4pYkKvS+Qcd+MrvVpCEpbOvjdNK63MWZpOeI43b79RXhlJEdtHXyR3TzNedjDCfuVQU/Th6Wwr94FCWr79qzFePc/z3wofOqTchOrVrpD7y3uY0bksdGWhtBtYjed4pqXw3aFCWg/taXroTGBLxg5qTsm+38sN0iLG3kSfpun89r0jN1eiljoodelRlbV5rOKHDqWezqfA1ZuO3erlQ2aSdoGsfGebEo9qU497bexVxNgo7gk4x5f2boZ15NzUNO+b6dTShbTjB6SeXAghRK3ShISEXFFVQnBwMJMnT2bGjBk1Nac60BBWX1FujOztY9qSs8fqJslKVkW5b2YaC3pb1hjbrKxiQb3Rc71VG/VGTotY2noFFps2htVXbPuv6GFHA6csZlTQET56Y1XVl0XEtozCYjUTew/kMVtlxB77N2MqN1T2sVgGxHpVEutVQOyPVe58K314kNlNjcY+rdc0tzdPO8cFbFc2Mc7Vzn6oTHXZ1uPkk7DlPKEDPNmrHje75S3m45S7v2bHtZzVVyxXaqnk3KjjBB5zdJWbinkPeJYZIzzYs2SurFMuhBCiVl2nQfl1ymyllfID91oW8QgzJ/ah8H/Tmbeu6ksj1vh0xvblxZuLbJfnE8J7AM/OuJeWpz6RJ3oKIYSodXVaviLq2HgdO8xKTubcl423xoOEf9fflDj6GTM3/EXzgf/kqSjbxfdqlxvDn7nZVHIS2JIRXZtx6e909kpALiyE8OCz9xKu+x8rJCAXQghRB+p89ZXOnTvLUz3rympvdi1NJqm8h/nUl22LWRk4k4n9h+ERv466y5cXsvHrTF5+eThr1DKKaj9URlzTvAfczc0eh1g7/VupJRdCCFEn6rR8xdPTkzvvvJNvv/32SoYUQgghhBDimiLlK0IIIYQQQtQzCcqFEEIIIYSoZ3UalOfm5krpihBCCCGEEFYkUy6EEEIIIUQ9k6Bc1LzQkUx/dyaPtDHfGMn4ue8wZaCdJ90IIYQQQlzn6jQo12q1hIaG1uWQos5FMv7pQfif+ZW4k+bbE/hhTwatRk2yCtaFEEIIIUSdBuXu7u5ERkbW5ZAN3qjp0axZOZxF4/0sH3PvqK4RLFzRn0ndqvXuGhbKyOkPc/Ol31i5eBsZVq8mrZ/P5wca0ydmCpIwF0IIIYQwkfKVehVKRFg+CXtT8QoPJLIhxNVXInIQPVuV8tevcZwsp0nCD3s4o23PLYMlXS6EEEIIYSBBeX0aHkB4TjrxH6RzyiuMISOu5qg8lJEDIvBMP8TmbdY5cjNJ69l+NJeArsMkWy6EEEIIodLW5WB5eXns3LmzLods0EZ1DCTn1G4S9JnckNiZER1CcdpwhjKzNt2f7MekqKam0hZdIrEzjrA3ugcfRgcZt/vERLPG0CbxD56cZ+gnlH+u6EIbs3g/ccsmZm9QH+TaNYKFEwJJXPUj5+8cxohwpaEuYRfTVmdieNzrqOnRxtcs5mF8Hqw//t6NST+yu9wsuUHCgURG39yCQE+wqXERQgghhLgO1WlQfvnyZTIzM+tyyAZMKV05tSoLPbDuWBrDowO4x+kM36hRuRII55OwchPL9ust375xL09sxCKotmmjBuS++3bxhCHAHt6DD6OjeQ2zwBwPImOi0SXs4omYTPTDe/BhdGcm7lP67P5kP4b7nCb2afMg3HqoG/B2zUeXllv5rmdkoLvUDt/W/nBSonIhhBBCCClfqS+G0pUDapSbnI9OH0jH4Wo2umsEt4ZpSNxiL9h2TPcnWxOuSeO3D0wZbzbuZeMpPWEdQi1OvkVmfGM6p/Qe+LQ0a+AdQNTNFZTX+Pvj3bgqs3PHO9CzKm8QQgghhLhm1Wmm3MnJCVdXVwoKCupy2AZpVMdANLrD7DNEy4dSOakLJ8qihCWP7JQrHEiXT5K9mN7bne4a2Gtolp5lCtxJ4l9PJxm/2/fBjyyjH5OMJTJ5JKy0ulhQs9+OczCrLoQQQghxHajToLxp06bceeedfPvtt3U5bAMUSkSYBjSd+WBlZ8uXfNQSltqegi7fdEHggH0f/MgTHyj/7v5kPybF9GOSeWCedBZdkTstHCkU9/fHu3E+R05L6YoQQgghBFy35SuDmLIkltjYlxjlXg/DDw8gXJPG5gkbGRdj9hV7imxDCcuhVE7qPIiM6cG9FZ2lQ/lk40F4d1+bdc73JaSj8wrjwX+YrYE+vAfDw/NJ2JZkcUNpVexLSEdnE9BnkKG7RECbXlS22GHkzWF4pp9kd2V3hAohhBBCXCfqNFPecJwjW1cG/qFEPRzF5lXxFNfh6KM6BqJJPMx/rKNiqxKW5TM2kjo9mhHLhzPM0MZm1ZMk/rU5gA+je/Oh4blMhtVXDh1l2nJYOMHsNXulJ5XN13rlFZQVXCz7SGL99qP0fKIrwwbGsbjcZREjuTnM06FVWoQQQgghrheakJCQ6t1FqAoODmby5MnMmDGj0rZarZYWLVqQlJRUadtaN2gKS0a259y2F5m3Lr++Z3ONCGXk9OcY1GQfi2Z+Zjfojhw/lyfapbJu/mIqWs5cCCGEEOJ6UqflK6WlpQ0jIKcTj97SFi1JHP9BAvKak8T6+Z9zoHEfYqYMxPrZQKEjp/PwzZf4baUE5EIIIYQQ5q67mvJOj85iaewkerv8zkfPzUOS5DUtgdUrfiCj1S0Mtiguj2RQT3/OrFvGZ1K3IoQQQghhoU7LV4QQQgghhBC26jRT7unpyejRo+tySCGEEEIIIRq86658RQghhBBCiIZGgnIhhBBCCCHqWZ0G5UVFRQ1k9RUhhBBCCCEajjoNyi9dukRCQkJdDimEEEIIIUSDJ+Ur4vrWZSxvLXuBEY3qeyL2+DDg2fnMj+lV3xMRQgghRC2ToPy64MOEucNZs7I/k7pp6nsy1dc1goUrhrNmpfK1aLwfle9NKP9cMZzX7rbXchjPx0ThtP9/bLpc89O9ctls/+4geV3HMGN0WH1PRgghhBC1qE6DcldXV/r27VuXQzZo3Z/sx4crqxpkNjBdI1i4opxgf3gPPlwZxb019Sk7dJRpT29kXMyvxGdfaWddGPvWXbQ5/T2vfXCAMsNm13/w1sAvWdP3Fe40tvVkQMRKVkeOpyPNeTTyS2Ijhlp2px3M6HPFjwAAIABJREFU1Fs/4V+tbjTr50OmBZQ3vnmfFUj6gqXfnML7jqeRhLkQQghx7arToLxx48b4+fnV5ZAN1qjp0TwTVcCWCRsZF7ORcbGn0HfvzcJaCcyzWT5jI+NidrBs/xU9K8rWoXyy8cCnZTmv6/JJquEha8SwO+nhk8u+/23CNklegq6kBf0NAXY9y97+HQdTPejYfzSSLxdCCCGuTVK+Uh+6RnBrWD4JK/fyjSFFe+go0zan4hUZxmg5K7WsC2N7h6NJ3M1HB8rsvF5KeuZZ3Px6V5zFrjNJfP/LMYpb9mSgZMuFEEKIa5K2LgcrLi6moKCgLodskLpHBuCtySftoFUKOTkfnT6cjsNb8c+hrclZ9aNtZnt4Dz6M1rBlQjyXX4hmhOYwyzJbMTGqqZphT2PzhHhjsD9qejQjwg25d8vXQCmhmdQ2g+W/NWHCsCC1jzwSVpqP7cOEubcQ5WO9J2lsnnCSbB0Y/v4xano0t+l2M211Jt0C3EGXwT69vbkAiX/w5LwzaumIMkbbxF1MS23NB9HqXHSJxM44wt4qZNttxgESLb5riY+3hsT4zXay5IqSnI850Owt7gpYzbF0x8euLdkHj5AyJByfFmFY740QQgghrn51mpMtLCxk69atdTlkw2WvrONQPkqp9EWydfZLQroHuFu+N6wzk/zO8I8YQ611IMNebGU8sevmb1LKYzalUm5c6x3GxD4FLH9aKaX57pQ7kfdH0EONa0dN70OUJpFY9fWl8RfRWwX43gG+aAglIkyDd3ggkVY1OKOmRzPC57Sxj3Exv3OydWc+eKmVxYfQO7I3H95imMvvnPQK48F/OF7SY3cc6x3v4o8POehSKor0z7MtM4twv6EVtKlD2afIynPB26/cInUhhBBCXMWkUKIBUwJdJdBcYx686vKN2Wd0icTON2Sbs0nVVaeAO43Nr5iy0clZeWYBvA9B3hp0p9JIUDfuS0hHp3cn8CarULmrOz6nE4nXBxB1s9lrXSO4NUxD4q6jZhnvJP61ORV9WAD3mH8KLTLjSRxN1OPt4+FYUG4oC/rqaMWZ9ZY+eDvQYerZ/3LC6w4eb+rI4HXDxaeF1JULIYQQ1yAJyuuLtzuh1oFhV3d8yCM7RQmulWA0lAjvfHStleA1xNeDnOy88rPeNU6di1n227L8xjTX7pEB5Px5lFSdO+HdfQm1mGse2Sn2+rcK7s0vOFAz/cYSl0qEuNsvC7KWko1D1y6luzmU40Y73w6OjF4nirPPSfGKEEIIcQ2q89VXIiMj63LIBqm8TLN5sGvMVg8PwCfxD35JDKDjcF8la52eVYdBuco7jInqGuHKqjGWtengTo82GrJTYN2xNLwczW7jQBDtqOR8+xl8a79nkI0X3i0rm2Eu2xMPoA8dQnvjtnzOFVzAuckNljeBalvi61ZKdsHh6s6+Yj7h+HoUo8tsAAXuQgghhKhxdb5OeWhoaF0OWY5BTFkSS2zsS4xyr4fhDx3ll0R3ImN6mNbw7hrBQz2acnqLsiLLvvR88HYnpqMHifuy+E9cIl4dgig/41xLjCvFqLXpMRsZF2MZkCdn5aEPCyNKk078AT1sTOdU69bc4qNeQBxK5aTOw6JOHUL557AgchIS+dahNLgD1OUZw7v7qhcEofxzRRfa2MTeKWTr9IS1G0alD/Is2sJf+eG09TJsyCUh8wwF3r25y1je7cmAsB60KD7JoVqKmX1u6kRLlzSOH5A8uRBCCHEtqtPVVxqOc2TrysA/lKiHo9i8Kp7iOp7BuvmbYHo0I5YPZ5i6LXHLJmZvMBR256MbFk6U7g+e3K8HUjk55haifNLY7HBm2TYoHaaOZzFWRQ4d5Yu9AUyKiWaN1UvWfZjqzpM4mtiZEeGgA5R10n+FubcwcYWpIlqXsItpqzMdzvp3f7Ifk4yrzAA+vfkwErM69CT+tdydhRPU7eSRsPI34u/rg+Xq+L/z0a5T9BjWi7E3b+IDu8siGpxnQ/IxIrt2wfAhuZA+l7kn3mFu1y9Nx6T4Dz7fOYf/WrzXjRvN2wCluu0sSljNMfV7rfcApg8cYNaikMOHnmChRXDvw02dWuKStgeJyYUQQohrkyYkJOSKageCg4OZPHkyM2bMqLStp6cnd955J99+++2VDFkzBk1hycj2nNv2IvPW5df3bBqu4T34MNqDfSstl2dUAmR7ZSxXiy6MfSuGqJw4nl3wXblLIzYEPgOe5eV7W3Lqk+ms3F3fsxFCCCFEbajT8pXc3NyGEZDTiUdvaYuWJI7/IAF51fkQ1aYpmob6tE6H/M5Hr27hZOshzH7y5oZ7x3PoQzxzbzi6/62QgFwIIYS4hl135SudHp3FhN7+OOUe5KPnVhFf13UrV5uNe9nYMZoR1uUrFg/+uVptZtFKf96KuYPojw7wXYNLl/swYMRNeBxay/RvpW5FCCGEuJbVafmKEEIIIYQQwlad/tVeq9U2kNVXhBBCCCGEaDjqtHzF3d2dyMhIkpKS6nLYBqWkpASv7qNwarBFzKIieUmH0Ovqck1KIYQQjigtysXdpbC+pyGqQa+HS2XuaJwb0CO068F1V1Ne3y5fvkxgk1KCm9X3TER17E0prvPlM4UQQjigrJARbeU39NXoQhFsOaWl0XUelEu+VgghhBBCiHpWp0F5Xl4eO3furMshhah9zYcxbeFsxnaq74kIIRqszo8ze9mL3O1svnEozy+dw5PdK322sBDXpaC7nmfhW0/QxXxjxOPMXvQC0S3Kf1/E47NZ9EI0FTRpkOo0KL98+TKZmZl1OeQ14GEWrFrJF6vf5Kkq/97uw6vvrmTVi7fV+59Ebp+2iC/ee4EB9T0RRzwyi89Xr+QL9Wvh4xUd+M6MmziM5ud2EXekluZzfy7H45JJ+qCAdlV9b2QBezb/zXej6ntB+VJWf3SWI/OK8a/nmYgrM3h6BqfikklSv+ScOmIoz8f0pNH+7WwqMd++lW17L9PtyeetgvWadJlV0WdJeiJZ+XoglymNrZr4FbDrsWRjmyN9iwmqrek0JJOPMH+7ngWffoT1IanUwG3M/F82k+6u8jtr2KPE/KeM2YsnXhX1yKPWlLJgu179OsGYJhU0jnicSdE38PfuOH433340jl1ng7lrglWwbtFkF2eD72LCE+W1aJiuhnN47Rk/i8/vDDI9Lt5CPn9+8gJv/lwXK4A/zIJVt9Pc/kTIO/4ZT7/zc52tRX77tEU83fI8/35+wf+3d+ZxVdX5/3+CgAgoXHZcQEEzUTQF90rLBUU0nZqaytLC3VJzzWn6VeO0uOS0iVuYtsw0NY2piKKNZd9xScENNTdQEJH9ArIJCL8/zl3O3bj3KlxQP8/Hw4eXcz7n83l/lgvv8z6v8/6wrykToH/9Fs9/DerxMTE8QFvGLJhM37ojrFmdwHX5qaeLuRBTbPCLPiuxPQNX17JxczYjA0x0MtObETEuXLizXlhE5OI8YodVmPhF4MLOGG9mZdrAEKpI2JZN9yoPVk1tw6dF0tGFq67xapg9J9f5M26r6Zm4KzGxRijRHQPz1LBxczaDcnwZusSJvIa1Upeni/l0WA1n1nW46+fDr1cBR8K1m8fVFnox90dXtltcQx1THs7hDe/WZq4LY9KyaDqnJzI3Ltlg9+CULW8S7/UZY9+JIfPNOJJvc7+EeUOyeC2khtJUf4bvd5L9PmrBtPj2AIzok8+6LkYuzndh4JeBSA78dQbfngkNhMqGG74M2+9EtpVXT/iihsFBJgIpN/7Hf556hIPVxk83KHPOsGJ8qImAmJLLHwewZttNGxgCkuO+hfZXX+GdubHU2KhVY2x9yYGtoBofJ9MF/aOYH9Mfu6R1rIq/pncym4TVcfgse4XJC3P5cFU8+iXITmB1nA/LXpnMwtwPjdTRPLGpU25vb4+zszPl5eW2bLb5sfEtnv+X6vPEd/hmiB37Z/w/Nhj9ZfwNC6d900iGyOtWOaAHZrFgS7PbRad5EhbJwBC4FJ+I8SC5KafWnqmT26s+W+BQfefOA9+5N5zdMhJX+BCyQvocuTiP2L4t+cgqh7AhcaToVgUjHmvNp1vtgCoe93OgqObu3qLKJJp5lW5IFPvbM3B1836UtLBfKS0zFSy8qx3yOj4efZXxfs78sjOQSTnSUbfAG2zrW8P2ow38Z3H0CPp6FZP8YzymfMFde48yaEZ/Ho/+kuRtt+MxVjG8nR0pv7ehc2AFz7R04iNb+XvNDI3Th8pBd/iaN16YjNHh+KQ7iz9pJEPkdasc0GPRXfj2Pnd/LCU0ciCd7dJISDxlosRZEg9domf0ACJ7xrPJWLGziRy61JPoAZH0jN+EqZqaEzb9C9C6dWtGjx5tyyYFgkaiLWNG9sCzIIXEhOvmiwsswJHU8/YEDaiW5BBPV+Cf5UpOU4Z1BPccfr0KJYd8l6/GIQcozWjNsIZ2yAlj0qAQ7C//xpf1hcBTtnAwtZZO/V/ktuTlwRV0vuXCT8dcuNSimGe636M3soL7A/8oRvX0ovD0HuoLcGcn7OZUgSc9RprSjmeTsPsUBZ49GFmfAL0ZIeQrzZZB/OXvkwh1U/1YdtGErEOvHPXLTmKWrWOYvx3kHOCFv3xp8CjVFJrrTLZhKIWpV/4y8R2+GeKPHTn8YvIpQX3XqZD149EFq5nxIAbyn5hl6xjW+pJ2/AbNZ8NLXdEMmcmxrQ8vfBWtKLh01ESUvAGIKOe3d/LxV31LS0/4G4+mG8gg6pOdqGQizmopjaX35drrJBwNJCWGUpj65S+SNOWWJNdZC14OkHzYlXaTKvmThxMt+90k84A7Dg9W49OpDlSzrrkOw3HRRPt31vHqs+oxscBWfcmQ3thjrJz+uOvUIXsCklzBAXU5q6Qp6gh6AKd75mjlTpp29OYkIJukRPW1umOv31/dtWTG1s76Y5HPXhPt1Dc3avTL6I99/baq6BPD+1PCcc87zEdvfWlE6tWBJxa/RmTHW1zYtpKPEnNVx+v4c9syaou8+CHH4CId9OUtNVf8CNnXEk2kPUB9poBPXy7gUwDsOXegPZHn1efa46Ww43JSgskouZpdv6cxZqwn7e2xWsIyr0MZt7K9+ddNJ7jmwGttK+l+zKWBfzdVEf9cNmHO2iNZJ9oz8Jju75DXhmQxL0R2J53rzeh4F86aOF+a6q+SqejV75vNbyHqUi7s+s6bGaXSTyP65LPuoXLtGlHVYbHSbsRe3n59OG6qXwkVKbONyzr0ytUvO/mMRT/Nxs8e8hPb8MHyGxYao73OZBsGUpj65S8aCc+1LaafEtR3nQptPyT5S5cWB/TkP5Ltbc5oxy98ZS5/CvfR/I02Obb14emDolUhaUnmYttnOXqpgP5dfPECQwkLwNmjXCroTxdfkyWaFcIpb7Yc5G+vHQTUWmtjZVSOcPlFPp9uzqm0pqwujy5YTeil2Tz3puovxcR3+GbIRFZOOqiSugziL39/lDYXv2aiBRp0ycEv59yXM63Tzk98h2+GtOa85jrphuSrv8ELf/mSXz9MZtyGR2k/YDD2/6e243m6+dlx/cDfdRzyG/+bxTSVTCdm2TqmrF4I1jjmbQPxbFWBMrfQcvutJcmF/mMC0ThNRoqoHZhcSxxslRNZfcKfCKu0xzVs3HyDK7MDiZI7XzMKiD2qcsieLubTYXYkxgRaoEGX6cefUTmoEapnuilOnKq8wYjHWuLg58yun+0YPVm3v09kBRC00F7Wp2y2z5f1v00RC8d4sOqZQD4tUtn63A1e/VnV1tPFvO/lzoBIH2kMVA741uVq56+KhDfzcTutHidp/Efe8tRzyMs5p9FWS2X2xqHjYLo9lE1SsNoWqd8zljrzrRXj3zbyOiS2J2iyvcbWLfPbM3C1E1FPyNaHCQmUtEbkcyPZ8ctyXWfXtK3qdagaS4XC6DsP5udGNY4BziZv1iy19bZxqCHQDWoLHOrVjvv1KuBI71taeYtDNVsnXCf1cckxn7srkLmWaMrDfFHYFXEl04JfLJkFKOu64t2zhZVeuSRduXzYkevAR1ddmTG0nDmtXZhuqV9oQRvxz2XT6Zo//dU675Bizg3J5BBqx1zSgkf6OrPru7YaB1rOiD75/KHEn6BNqjUSUsz5IdlsLWnPwONORP9Dpms3oSmXHHLY+12gqo0q4p/P5r9D/Bmyy8Lu7B3B23tBo7U2VkblCN9Mmc3r5pxKa8rq8ALT/zOSq+PsWKn6FTjhixoGzz3Nn/aqpC4j9vL2EwGkf+xsgQZd5eCX/Y//RFqnnZ/wRQ2DPQ9prxuxl7dfL+F12vDB8q9Y/8vrrBjfnd5RLTmotmPOY/jYX+LYUrlDXkxytK9KpvMZi35aw1sfY5Vj7t/RC5fKInILzJctzFNS0cuTwHZwyqjPXUiesoJenoG041Szd8ttKl8pKysjKSnJlk3e0zy6IJy2djn8sqB+Z9LtgYl8vVHlNM+z/iXKXz+cr6sz//oC140k83Br15+h9a0o1y5MWb9eilpPn2/ly6yD+Eu4P2UXtvI3zXUH+VtyNnV+nYlpAfAN28+X6dox8QEC7HI4/7XKAR/9AG45B1gs60/crguUurbl4cFWfB28fFG0MleonDFx2iwV6YkNnQWlirmDK6g84c+4eh3yanrNuEq6yonsbrVz48DUyV46TtSqI25Goi/l9H66/jl1eyibpMRsgs75E/FHYxFjB/591p6gZ4pol+XMt0X2XFNq+5a4wodH5H39rhWXKvXrcGHna9q6U3KddP8YfOdOH/kYJDlxKk9WZ0QNXg6OpB52VJVx4N9nW1LTpoZID4AaNkbdoPqEFzGa6LsDUxNac7N9OfPkf+F1IuNO7LvYAjfvGhT1jpIupfL5TXKgwKqQk7RGchM9ZfPnxMcHWuEcXMmfPBrOVrNz83QZQwJacHKdl8mnOBbbeiyOpbNmMctolBzgKttWzGfWrEWyKLkRWlbwf+qsJC9fJblvDThUs+6BcvLPeGrlLTWOzLjgikP7Cv5ibiDktPdCYZX83gPP9lb+WVZLV66pGipxRFlTTs8uDSdhGdGnhG7OLvzvmMxJTnVnXaoDbdtWEgoQUsoQ3xac+sXLqEMOsPeYN48cl/UvtRUXDb6/9VHF3G7l5B73lLXhxMe/u+DsX8mzzvVdaw0vMH1oN+yvbeFv9TqTCjrNrWTVeMlpftPqlyi/Yv0fHtDRmW89ft5IYEuB/+Mx9UZRW4Wt4YN9UtT69SesfJl1xF56BZZwedNw7XV7R3Ay4xbePT6Vnpx98gGpRR46dkzo3RX7awfYqnLAH+/tQ0FiH1l/XmHf8TycOz5LPyuyC3n6KDD751WOswe+XuaKSNH05o5NI+U1NTWkp6fbssl7n7ISLpnx80ovXOBGlwcIaNefofb/Z31mE325hwqtkvogf3sN/vL3SUxZv54pYFwSUnaRszc6E+ovOcD7biPDjHSDMVHvqPY59K+HMpn4YFfGvNCCfVv6qxz5r/lcHnjyG8xXG/XzC5RhFQW5KM3u5myb7CUlOQ5mnGxHTh5uxYMDSggZUI3PVusjjsaztMhyWX3nzgPAhZhM0iOlQ8bkMaUnPLn2YCFdgyWJisYpD65Goao8cZ8rfx1STM5hR/JUAqs2fjX44ESeCVlJllW90ZfiqGxTL6MkBwpqqmVjVcNToTdxKHElUXYTId1g6Netl9+rxEHnmlUL27HKKlsbhraR2nnRUKKX9+VObbVobhzJPFq/l2qRrbdLjQMZpfBQmxrG0ZLtN1vxyKZAVSQ8m0BNwTq8w7JID9O/3sqtmDMLUNZ5W3FBEYWWRNVlzOtQRqsyD/aq75LzW3Kq0J5RDS1hKXPkrLHNMl2rGdESlTzFkWu59cyvdzmHx+QToKebt+77C217Z5LeW9++ejJ53CYVhUfMSDyVXD6RQ9BDD0rO6jbrM5voyz0kLmk/7h3B2+zl7dfX8MG+NZJdRiQhFSm/cKP7UHw7Pks/x9jbyDCjusGYq3dYE1r+iqTUD+kc/hpPucTy7WCVI//JdJ0AjXdkCav0v783zmMNhXlKKqyJGVsQVa8sysWCwHuTI+Qr9wVHWDQtmxUbHmXKX19kvxVacnieVZO7wgW5NMVYqkCt3EYtKzEmCTn41gyuv7OOYS++zbSDVmjJVZhN03hwNb+NXsewLs/TYpA3gW5lZB4+oFveSj29UbIyKKxoRbCvJ3AXvOh5wp0HztgZSj0swVgavKeLuRCj91tfniXm6WIuxKgebeu05cTzT/izZVs2Cz90INFY6sckF/qPMZa8Vl9Wojq2LduKyHMNGzfn0j3fiP5br6SO020kTaVJjX8zxLr3B26Hhpgbica11Y73slwZ37uMJ/1c2W5SV25HfkoA4Xf64mdKLsq6/lL025wkpb0XCjslSaesla7UgHM+CS/rn2toCYsJyhy1NwT1UkX8yHxaX5FJYFSyGGsjmFnH2zPwuOEaqaks51kr67pj9j/E4ivHWDF+DQuXfGWFlhyYc4Znwh24IpemGEsVqJHboJKVGJOEfM/q4Wd47afZ/GHTZpKt0JJLmE/TmLzoOx7/aTYdX21NuHcvXEvPsCdBt7x1enrjZF8poNy5C5bIwD19FLQqv0yGyXKe+ChaUX45o9lLV8DG8pXmw0jmfhJLbOwSJrg2tS23z6+HMil17cKUv76I+Rf2v2Hh5vOU+g3mq79ZUt40McseMZnbXOIgv2aajjzHvfklZ0v9GLrOmg2RpDrdHpjAXx6pf9nG7bpAqV9n/jyoPW45J3hXFpGPO59Dnd9gVtS7IZAlFJCrrMArpC9Nt5GnJDFoG5ljmSzmO3de/W8rfCMzOTT/Th5tV5HwvJH82jptGZOVqHEiapk32f757JVviFTixO8mHnubYuGqPIOIt7VELlbyuCxnfOTiYrpWSdrqoEjVPx2HXJKzOD9UQFyTb8oE4MD5fDvc9CUegHaNFBJrVDjbeBjMzXetuFRZzpi/l/CqgZ1gla19Yng/NpbYd140saFWB55YvJrY2JXMi/TVOZNzpg3HyioZGllkXIpS48DO6454dy9ki199Rtix44Yj9h5lPGmyXCYFyjo6PRCFuaf3o7sFY3/5AgnGIpyj5/NZbCyxsXo7ggZX0NnZhd3fBxK0SfZvuzdZDShh2ZvhQm7LYqYNkG0qFFLMjBA7Tp1tJUXJU1txsbKc0WOMbE5kgteG5Ou8OCrRgt9v2OPmX8EzBvU48d9MB9r2LmSd/qPbBuUrklLzcQ5bw8Ilrc0X/6Q7/0rOwyuyhNctKW+Sz1g0zlRucxV7v+R6sanfO6+wcvlPlLadxLvWbIi090uuF3vQ6eWfGFTvQpXkKF494ukX4k3BwShZRP4VLl29hXfksfo3BLKEwjyUFZ4ER5jb+CeUvp29KExLMp3uMLQvnb0seWm0eWDTSLm7uzvDhw/nhx9+sGWzRrhGobIWfILo93w/dm44grGnck2KgWSki0oaIttc6OBqph2UotZyOYbJaPLB1UwLfodvhgzmq498Lcw48g3bz4cz40GtbKT0wgHOug2WRcCMbUKUwy8zTNV/kL+91olVGx5l6LrV+Muzpbh20UpgVFz/n5Q7/dcP58OC1cx4cS3/eFHelF7k++BhMv44idCuZZz78mvdiPjXb/E87/DNkFj+8bDsuExuo59phodVZXMO0G30cdVayWLnntMMnBlGZFQAZxohLaKBZESdXUOm/V21sB0pi/OInXGV9BnqgqZlM4krfFjre41XIzM542dhpPc7V/ZH3WCkpg1HTsZ7kT1Kq98xJm8pPeHPUFMRzyQX+m9x50JMPnu/92DrySpamP0TIumLY4dpI9ilJ3zYf70AY/uhGEfSfl+IkWUQyfTm25QqolU/Jq5QsG9zNgv/VcRCnWu145q4wodZ6I871m38pJ+9RS3bsHrzIFi10IfHt8lt1tq6amE7WHWNV+MykIsHGzbSb8ncOBH1RFs26o+tbMxsYmuNIxO+78DHo68y9eUSpmpO2JGv+v/z//kBObw5RtcObQYWiZyTnvzY9irjNeX0s6+ksOVgKn3H9ufF8HjiTEbLR9Mt2J7Le81naZEzr0MZrXI9+EQ/MCmXsGTA51H5tJV9Oec/X8x8HDn1iz9j0+wMsploMp+UubP6R3c+zndhYII3h6Ky+U0TkddeL+FE9D/asSH6uqp+FZrsK058fM6FdQ9ps6qUpvqwP9fw+/v3/d4Mey5bVo82+8rf97cFspj3tN4aSbX8RU8DyYiHShoi21woeZEvyXPOsGK8XI5hOpqcvMiXwC9qGBxZwrK2FmYc+eQDUoduoYtGNqLk8u59lEZqhVRGNyG6toU3TNW/dwRvdzvDivGTeHdbiE62FEl3vkZW+BJJ0V34tvwr1v8Bpv9nC39IrOMPshL6ke/kPScZ+/pwQkr/x39W6y68rS85wBc1DI6vI0J2XCu30c80AxGqsrkJbUh4SfX9yE5g96mBvNJrJNHtTplOi6h2uL837XCH9u2MV2Ea9RRpVtgFBgbeUagnICCAOXPmsHTpUrNlm49TDoycyyfju3Jt7yKWb7VST3wHVFZWEjp0PAFWShMFzYOjycepKlA/827LmAULGOORwpo3NzdeakSBTVm46hqvBrXWc4yNZGARCCwijEnLZtC/ZA9zV24z6nSPnv8ZY72PE3cHO3oKoKY8m2fDml2ITWABJZWQkOpCC2fVOxj+UcxfFI3nmXX8xejOQKFMWvYKvYoTjO/oCRA6iWWv9KI44e7Z0fM+la9054XBXXAgnQt7bOeQC+41stj54WaO2vXj5flRBJi/QHC3ElFFT59aSvMdUDa1LYK7jBS2vBnPpaBI3okJN5AOhk1aRnTndBLfEg65QKAhO4HVcb9RFzGZhQYb//gTNT+G/nZJbDblkPtHMT+mP3ZJm+8ahxxs7JRXVlY2efaV7i+8w2exsxk/DDGmAAAgAElEQVTodIrN85ZjwyC54J4khS9id5LVbiCRTScuFzQgqxb6cMapiIX/kqWzfDef2v+2v410kgIBwC5Wr/+NW30eJ1pHszuaEX1bcCxuNduszpYhENzjnN3CmvhMAgZEoqMuD41kYPvrJKzdZFJLHho5kPbXE1hrNMrefLGpfEUg5Ct3O7ryFYFAIBA0F4R85e7FQL5yn3KfylcEAoFAIBAIBILmg8hT3gSUVWHBxjOC5kiN0HwKBAJBs+WqFVmLBM2HMvGAA7CxU+7s7Ez//v3Zv3+/LZttVjg6OpJ1LdvqHcwEzYNbFbdo+H3jBAKBQHCn3Gqh4L8Z1u6pKWguODo63tEeKvcCNnXKW7Zsibf3/a0XatGiBeScaGozBLfJ/f4LQyAQCJorLVu2pGVLi7fMEQiaHUJTLhAImoAwJi9bw6JxQkEnENx9dGDcotW886Lufqq9Y95j1bxIfE1cBb2JeW+VwS6rAoFAwqZOeVVVFeXl5bZsUnDfE8Qb68by5hN25ovqER4zlE3rx7J6qjfWXj1hcTRffNCdvtY328B4MvP9sXyxXvWvWdgEUfOn06/FMX6KF4+aBfXgd5NdP2RyYK71L3MMWJJHemIGZz+wNtdgLUs+vE76DyVMt7rVhuYWcZtlqTmbhU3QO2Ymo/wyOLhbdxut43sOkxP4BLP1nHVZCfYcziHwidmYLCIQ3MfY1CmvqKhg1y4L98G9p9FzlFT/bsf5u9eYsDiaL5Z0bMSFKY19cxlrk/0d25dN6x9jdh9DK6WbhX48ZdEgFbJ26Q5emr6Dz47c4I7ynzYQYZOXMaZzOrv/XxzHa5vaGmPoOUIGDpHx89Y7f/cakjN7aWMFj97VbVjOgCV5Rh3ljs8WczbxOj+ONXHNjgI+7Wl4zpAWxEwOJCgykGf2tWoAi++cDuMW8UJ4NYc3fERirt7Jq9tZ+VUyjgOmmYyGX92+kq+SHRkwbR4iYC4Q6CLkK01JWgox0yWH6aXYVOrCB7KpUR1SgTUkx/3Cy9N3MH9jvu2d2R25pNa5ERLupXfz4Em/zq2xS8vlP83SoTVHFCMivChO/onmHiQvOx5AUGSg9t+TbVgvO1+d4cML6nPzvCjt3XycRQEcXu5DUGQgoa87mi/cwFzZ50x6aTUPDNa/UbvF1G4VVGe78P3dtaeJit6MHNCJ2gsH0QuSazm+h8OX7Xlg0ChMxsv3HOay/QMMGiXC5QKBHOH/NRdOnuUfR29QF+zLH8SsCEjnbFodihA/IuReeS9/Oisg7Vw6d6NPHjZ5ICH2lzm85fhdab9Jfndlzr5WOPqX80eLIqCCe5ocR3654ohrlwrdKHq3SsIC7Mk57cSvTWXbHdBh3HC6e+RxKiER/SC5lqts/+kMRT49iTIVCr+6nZ/OFOHTM0pEywUCGTbPvhIWFkZSUpItm727UJaRXgeSFron9rviSfAewux+raWIaVoKMcuvaB2asX3ZFO2vjabqnzdWhhx2zjzCv2vNnw+PGcps7yvsrOtBdIgdpKUQL/scs/wKtWP7sinajoR1pQycHoKnqqK0hHiWbatDkowMpl+R3DbpWJe0QyzYWMuM9wfTz1Pdfhhx68NUn0tJWv8La47VWdzfCYujGReiG19Os2TsTYyXth8yeoXy4UxtX7UNSfaoCYoZysy+qrnTjKtqPMz0d+vvOYyN9qVf77McVfU/PMIXhV0Oh3ao7dGvC5RJh1hgcXTf3NzkM35xNI8oT3MxOIx+nqBMSpF9lrVlwdx08FRgd/koCQZRcgUef1zPA4ojnE97kG6D2kuHa7LI+PplsjLU5QIJmLKBoLbqnyvI3TGBtOOA4jW6zQyjWKe8hNPwz+nTR8n5FYtQWjQut0mVI6dPgSRxucbA7ACiTpaTMLkYV4BSD96TRdw7PlusPYcUfX95aitdh61bGUc+KsBPc8CR458FMH6H8TqocmX7G168ekp17ik7dhy5yZ8er4BSD76VfX7vyTYkPltMwnM1/HejM/1nq9uxJzMhgMEft0CSjOQwq6OrzHbp2NQ2Hrw81YlJm68xPEBtQB5fJRq31aAveuOhaauHPMJsT6YVU6A7HvJ+yPC7ya7YHELd9C4u9eC9J7UHg5fkkf54hd646ttYwZ8Ti/izXnv/SnJhUo8yRo9tw3pV/weMK8evqhXbf1bbY9hfo2vAJObmpiUDP8xhUrWCQ/65DA+AsuO+ss8B2icJZucGvH0UOOed47CpKLma48dILQon0M8DTLjvx4+lUhQeSD1FBIL7DpvGZJ2dnQkKCrJlk3cPvUJ5rm9rilJzSJJ5U8FR0bzifYUpKolLYacw3lC/tDi2L5ui3UheHy9JYKYf4IhHGHEyCUx4zFA2RftzOUFdZgcvTdd3yOV17GB7qi9j1so0y8FhDFYe5uX4bOqCw4i2O01MfLZeVN+PMTP8SNsQr9Evd4rqa7XueXtqna6sZ/rPeg55/f2dsDiacZ6XiZ2hvv4Ul6zVnuw4ysv1XhvEGzNDsEs+pCp3gCOFGDqhimDGeKnmbvoBjhT6MSjGGztL+2sgYdGXrsgcaj0Z1IcNrJlXRIThfTiez47cwCMijC5ph6TP6ki+BXMDYfgq7CgqvGoySm7vP5yuwec49ddRHP7rNNJz29J+1EJcALVD3sH+J9X5URzddgH3sVsJ7g1UplNZocDZy8B6XBRtqC3K4WYDjokO3cr45PEKyi620nFiXHtfZ/9TdnwcGUjQi36cpYi5Ku255DyWc+EztUSmHfsd89gkk8B0fLaYsx8V4KYjpdF3yOV1tCf2QhXj3pVplt2KeLKzGy/M8yLHrYg/9WvJe/O8yHErY7Ra8+xUxrjZJWR9ptYvt6T98CIrdc/tiT3tqCvridR3yJVUJ7TT2nqljD9rNNkyB1N9/Yt+nC21biqu/NOd0HqvvUXc8hy6FKrtlOw2cELV46aam58Kyhj2XDVgz/IFAVqdd6mH1t7I9pobAEMJi750xXh/L3rqroGGwLV3Pg8eb8cz+1rh2juXgdkB0md1JN/s3AB0oIOnM+XKHMzvz5NPnrISV89OpjOx5OehrHTFs5MIlQsEaoRQoikJDiNO/aLnLMmhNdAvyx29k9lcUoLC1ws7PJk5yJ+ipBRi1U4chaw9KHeWgxjVtzVFSYf4m36kF0BVh13aZdYe057fuiKFS3V+dBurdutyOBintiuHnSuvGHGqdCPayXGXSdWp406xoL+9Qnk4uIyk785ytDFF4L1c8aSU1OQC1ZgUcuTSDeoUroTLu6tMI3aFeqwKyVbWofB0s8JZ1pOw9PKns6KUpL0q6crYEPp6yn4GjQzKQ1/2cqco09i9vU7z+Z+f58tOWrIWATrgqTBjVGUKFzesQsrRdIOK4hLNqRa9ZuPvm0XmbvV5uHVyDdlZrVB0eUp1xBFnn3AkB3434U8/pbn+VtEVrMn95Nr7us6LnPp6ccfAPL5Sn/9IcmgN9MtyR08laXDyquFRbvFmZDEc99Y6rbRgWaI7VRoJjFTGKcOHGUZ10erzHqzW1GHP8hWenK2qoM9j6owljpzero68OnJ8s270U11GHtE+vLmNXh13Si1LppTgmeHFUk3U2p7ln7fR3hx0q+DJHpiwrwHxq6Fta7mExJ5/JblQ5lRND/lNSKkHKzURazsuFKjnzkL0JSzdKgkLkM1Ftwqe7HGLzF9dtf3NacnMf8vXQANR2oYv1eNe6sHHOuvJgrkBwBsfhbNVzboo/PCovwQKv/pLCAT3EyJJcFNiTGqih7KwVOakSxFWCUmvoIgYyKYI/atydOvILahXyqDbhhaFrxd3KvyVbiAaTj1cb38DXVHYlZFzopFfyzxZRiGqCPaxfOrUEWzlFZIbuGm5hKW2ty+KolyOHJc3YqK/CleC7GjcmxP9Js2uxasUKuu4o+3DHNoSOHk3gXqHq0uAiiQqb0zD06MTKB7F3UVJrWd/FBzB2d2FiozLVjWl82jfCJbIDKoLHfld85MUYV0OwC0moXb89S6qctX9scCh3jaMn69FEVB7h7IAVR0NuGWWdCNjcJQsoONDNbhVOXE1vcGaM06OA1k3aunSo4pHacWv1PJMRDmuVa4q6VFDYa8jYTkZWo5fqStxO+RlWpCXZmR8naroEATY8GXQ+uZGQop+d7OiTvNR9XKUOebj7gLB/YJNnfLi4mJ++OEHWzZ5z2OdftjKunMLuDMPSn1DoGgYgzDT34wylHV++D1kB8ca3xvVcUItuMG6LXbkkjrGH88OkuNflHpaR95kEs27CbbD/FpMIVdZRz/PDthzmy96GmjM5SikyLodOIV3xf7cV2QHTkXRP4K61tVU5iXfTouNijnH//axR3n9Th+ENkQdutR7I9PNgdLJ5TZzRnWcUCP66Ybgyj5n0p+6gU9wFVO7VVB20cOyNmxxc6KH+ZvMq1wtrMQlUIp+13+/J0XVy85dNl3O2weFcxnnLgtBuUCg5j6Vr4xk7iexxMYuYYKr+dLNE0ky4RERxiwjuawlJPlDcNRQo/muTdUxYXEYnYtkcoXbQLcOSbqBRt5h+HKimoyCUhMZaCzorzyCDahflu3cwAnJw2M6EVKUJtOt7+Cl23TITfdXjWoOB/aki0IumUGlOfdjzCKZblv1bsLlQ5ZKeCyfm/rqML8WJa4WKqnr1JWo2wgH3LrwG0UVco25PkrKlSW08OhBQAcnis4lkHv0Ai4hPeGWksoC69tsPFqw8fdWuPbON5rLWrdMjonNc4zVUcuSxYWEIpMrWI1+Hfbsz3UAjbzD2MuYaMoZz0AjRY2rAgt439RGQIUOFMg12KZexrxDOj5bykAvV7YvMp3u0lKyM5wo05F46JHjyC9XWuA3UMnAAEcuHJDdgP3uTMr1anpPlum2/W6y9qliONOGVy26MbF0buqvw+zcqMjPU1LpE8IAc5kMe/chxCOP1HreCO3dJwSPvFTzL40KBPcR96l85RqFylrwCaLf8/3YueEIVU1t0m2QHPcLaxjK7OnRfCE/IYvabl0RT0aMfhltdhWjdSjTiF16hqN1EG6xNW5EyOtISyHmda2junVFCqHrejJrXbDURNIhdigH8LBBn05xtPNgxqwdyxhArlU339903l3ryocz1RHsUpLWH+TIHwcZBPwNpRbaMTHI3hIVzRdR2naS405x9P3Bmr4Yq8NS6uuvGknC4o9CmaYnXUnn3RnwxrqesuwtetliDLLEtFbZLcvyYuHc1N8P82sRIGXzIVIjohkwqTfxcVZGyyv+w+V1wIxp9Px/w+UnNBlYbuUVUD1oAN7nPic5A8j7jbLHp+HnmMJ5o9H1puPwch+eIY9/vZJB+iva4/KI5eHlPgzJKCZh8jXSo9QltPpvo3XIor4dLbammt6yOqozfHjhSW3U9PByT37qdo1xK8sYpzr/wb5SFnTW75NuObmtV/7pThTo9UVmb05LRv/FiyMfqSU9jhz/rB0/PXmdB/WsNZRaqNsx4pRGSe1pxvWfrdkSkcOslRkqGw3H1VKu/LM1WyLKmaUZO/1sL2oJSzGupR7s0pOuxExuR9zma7LsLWYyomgyvcjXgGVzU38/zMyN6ser23/izICp9IyKxPeC6bSIksNdX5aW3vQJ8SDv3GGETy4QaLELDAy8o4fcAQEBzJkzh6VLl5ot6+DgQLt27UhPt/FzOWOMnMsn47tybe8ilm8ta2pr7m40mTd0ncl7FU2GF9WNi4Sx1IICY4RNXsaMfiUkzlnJ9ma+gdD9gDaDi3UO6d3KgCV5/Othe03aSAljqQUFxugwbhGvjXLjxEdv8aUxj7p3DO9N7UbuthV8ZLDlp7rIe0ztlsu2FUZ2BRUI7mNsKl9xdXUlIsLgTbAmoDsvDO6CA+lc2CMcckEDoNrUx9RLswItKZvfZOelIEb9NYbe96mATtDM8KtmaMdqvRdzBca4un0lXyU7MmDaPMONfzqMY9EL4VQf3mDSIe8wbhEvhFdzeINwyAUCfe47+Ur3F95h5kAf7ItPsHneBo7cjboVQZOiL/dQY3STIYFRElavx3fZDIZHb+G4CJcLbIihxEai7HgAnRvlpdt7j+Nxa9m96DUGjXqARFm4vPfIAfhlbGOF0RA6QG9GDvAjY9sK41F2geA+x6byFXd3d4YPHy4ysAgEAoFAIBAIBDJs+vC4tLSU/fv327JJgUAgEAgEAoGg2WNTp/zWrVvk5+ebLygQCAQCgUAgENxHiNesBAKBQCAQCASCJsamTrm9vT0uLsa3/RAIBAKBQCAQCO5XbOqUt27dmtGjR9uySYFAIBAIBAKBoNkj5CsCgUDQ6IQy8e3PeP0PrZvaEIFAIDCDNyPmruSDqbr7yoRMfJu/LxlPkMnrQpj49t9ZMt50CUH9CKdccI8TxBvrxvLmE3bmi1qMJzPfH8sX61X/PuhO34asvokIjxnKpvVjWT3Vm8bszoTF0Xyx/nbmRDXuSzredb+4RsydzqCWp/h5542mNkXQnPGoYvv3mRxefKsBK63j1RXXSU/MkP7tzGdjc9jD7w7xnVDCmcQMUr8oJ7LRWlGP3e3MSS1r4xrbvsYhZOIrTOiYz+E9STrHU3cf4Ir3SGZONbWAUtl94AreI2disoigXmz6t62srIykpCTzBe959Jw61b/GdobuBiYsjm48p2tsXzatf4zZfQxHWXJI+/GURQ0XsnbpDl6avoPPjtxo8h08w2OGsqnJbwwa4+bndpG+X83l+xQ68W2e6Hqdn97bwG83m9oaY0jOg8ZpU//7sZgF9Zw/v+p+33lNctgazenqUM4hE86g5JBeY+fTllRkx6eLAwiKDKTvOg9KG9xQ6/CdUMKZJr8xkNZ081jDzckW8B4xlxmDnDn+zXJ+TNc7mb+Xj9cdpLL38yaj4fl7P2bdwUp6P78EETC3Hpvu6FlTU0N6uv4s38ekpRCz/Aq1AL1C+XDmQDZ5yo4JGpYduaSO8Sck3Au7Y/kyZ9qTfp1bY5d2hf/cxwOfHPcLL8c1fjtbV8SztfGbaSaMYERfX26c2EJzD5JXpvjTdaGTyfM1Wd7MesmFRJAcxs+zSf1CdkzQsFx15kRmLSO73SQS+RjX8czAMtwq3Nj3XRPa18Tkbm1D961tGrkV6Ybm00ZupfkQwqjBXXFI38MeU/HT1N0cON+LCQNGEvHjRowVS919gPO9JjBgZAQ/bhSBWGu4254C37ucPMs/jt6gLtiXP4hZaSTSOZtWhyLEjwh5CLWXP50VkHYuXdwMCRqU0ImD6eKYwdF//kazDJLfLlddmJzogoNvOU+Jx9SNhD0fnTEyxh7VjOhUTeWlVnzYZLYJ7kW8R0TTy7eEs//9EdPh03z2xp8kt00ow0yFwvP3En8ylzahw0S03EpsGikXWICyjPQ6kOQAPbHfFU+C9xBm92stPYpP04ukj+3Lpmh/7WN6/fPGypDDzplH+Het+fPhMUOZ7X2FnXU9iA6xg7QU4mWfY5ZfoXZsXzZF25GwrpSB00PwVFWUlhDPsm11SHKCwfQrktsmHeuSdogFG2uZ8f5g+nmq2w8jbn2Y6nMpSet/Yc2xOov7O2FxNONCdIULaar/t/6ew9hoX/r1PstRVZ3hEb4o7HI4tKPOdB3GxrUeJiyOZpznZWKXnuFoneyY3Wlill/hicXRPKI8zcXgMPp5gjIpRfb5EAs2qiL5vUL5cKZ2TFGmaerUtbE1s9YFa83VjL0F60hvTLXX6mFuHZkhPGaotn39eTXZhqrbSdI6kY9vtLrvmjGR+tpZfbHnQDZpnBmVrWP6smlwOQmXfIjq2xo7ZRo7ZZ+186Vas55aG+Tjop7LNfkdmaXpk+F4tPNSYJ+xn70GUXIX3P/wBQ/6neD3cx0JfUT1l6s2h6vfTOLaZXU5T/xe/ged2qt/riZv91hSjwAur/Lg/Ahu6JSXcHhsPREDyrn4/msU6DfdkFQ7ci4JpEfwmTyu9OeRA5X8PKMIN4AKdz4Z765xHn0nlGjPoRd9V9OhnEOf59NWc6AFp+PaMeY743VQ48Ket7yZmqQ6N6mO+F+r+VNkOVS4863s8yfj3flqQgk/T6ni4Gcu9Jinbsee6/8NYMCKFkiylGwWPuAis106Ns/HnVkvOTM+LpMozZzksyHRuK0GfdEbD01bvaplA2DPddWn89+7kBVZSNjjtyCphdT/xyoJadOCS0ecTNZhdFxNYq6/LlyZn09CWCvi80oY36uamiwv2Wf9JyjG+9t1fj57Iss1rY58N0Pj+Gme0nhUsX1jLr5HA5hUo9SUr68NU0946lsnlqBrr968qjFYq8jsddaMb9SK62xQz496TDyq2L4xm17qYH/7bNLVE6a2NaecQ+vKubjbifDoItxqXNgv+6ztj/T9065J+XpW9eVRRzZtseNpzZgY9sndT4FrSSrHzY1R6iEu5Q6ih48PmHDfUw9dIndQD+opIjCCTWOy7u7uPPnkk7Zs8u6hVyjP9W1NUWoOSTI/JTgqmle8rzBl+g5eik2lsFMYb6h1u2P7sinajeT18bw0fQcvTT/AEY8w4mSa7PCYoWyK9udygrrMDl6aru+Qy+vYwfZUX8aslemrg8MYrDzMy/HZ1AWHEW13mpj4bL2ovh9jZviRtiFeo7XuFNXXao329tQ6yWHU2PqznkNef381zvAM9fWnuCT3+3bkklrnJklYAK10JVcjXTFaRyfddhoCRUQY3ofj+ezIDTwiwuiSdkj6rI7kqxzyol2yuSnsxKz3Jf341hXasa5Tpsns3WHgVNe7jnYc5WVjYyXD7DqygOS4X6R2YlMpNNZOr1A+HCNvQ7JH5yYFtOtRXcYjmFHj7IB03p2hWheF0nUvG7NVEcwYrytMiU2l0COYMZ3zWLsulUIPX/r1lsZkwuJe2H+v7au0nofqvo8QHMbsLnms1bTpx5hF8jUSip+iBcWF1zClFrXzGUK3B6+Q8tdRHP7rc1zO8qP9qKW4AmqHvGPL/arzozjywylaj9pBSD+gOpWKUk+cffRrdcFV4UFdUS6Vlk+PdXQoZ3NkuUG01jksm6OT6tgUGUjQM/6crC5mmkorKzlJN7gSF0hQZCBBke3ZU5tPrEyT7TuhhDOf5+OZ4q8qE0hQpL5DLq+jA6vOVDPyHZlGuVUxT4W5MG2KN1mtivnTo458MsWbrFalPK7WYDuUM3KekkJVPSMTnQkYorRQ52zPzBhV2ycdqcnyZpoRWyWHrRC7/7bT2nqhnDkarb7MGVZf/4w/J0tkTakkLD7dbqrGSF+6YryOM26649oQOLQtYJS9F33XeVDZtoBoH3cWrfOgUh3JN9Pf86u9tbr2Ghf2vBGomWNdp7qWgGHXSAhzkcZ1ije5bQt5R62tv+rCQNX6Scg0bmvX+fkcnVHCDY0tgQSNsdwhR2Zv0BRvsowV8Khi+2r5WpXs0b8hUo+bZn6rb/DHxbegyIlxf9ReVylf83JbHcoZMqyOTc/4c7K8nCGjqjj4vj8nyyulmzXqeHVFPoGJ2vEcmehMwLBs3XcOWhXz8pQqDr6hXrv29HhOvRYBvAn2cuWmMo88s6NTTI6yjJae7U1nYinOQVnWEs/2IlRuDUIo0ZQEhxGnftFzluTQzpc7H6Ab0TyZzSUlKHy9sMOTmYP8KUpKIVYTbSxk7UG5sxzEqL6tKUo6xN+MRT5VddilXWatLGK5dUUKl+r86DZW7YDkcDBObVcOO1caixjrRj6T4y6TqlPHnWJBf3uF8nBwGUnfndVEpw3Rk7D08qezopSkvekabf/DwXakHZLXkc67O/VvQhoAZRq7t9dpPv/z83yd0xMig/G8nMK7srnbmpim4zxajMl1ZAnm1lEDEeiKwi6H3zVPLFRz5emma2daCgs135MbFFrVFwDZfFMqrRe9Bb11xc86UfzkpFyU+l3Xiazrf/cA2uGlMLNgqn/n0tr3KQOgksqiYs0p++4LCGibQ+Zu9XmoPfMh1zMd8QyZqDrSglZeA5Ac+N30fXai5vraoqua6yzBOSxb50VO/RcYHdrms0F9/nPJoTWIUMojwUWO7L3siINXDZHU8k50EQ4pPrLInD1vxcucOlUZ5yxv5hjVtqvPK/hEU4cdn77nJXNQpDE5t0vtFLXg9D/cjcg8dKOE5ze10avjTqnj1VeL8c3y5C1VtBLs+PRTd+3NQYcKnutVa8I+NXoSFo9qRnS6xfWDbtI1HSp4rpfsZ4AiJ6b8Qz6uDUSNC79+66T5vG+NC79Y019rmpI7tqobE4WvhXPjUcXKgeVUpvhqIsWNQusafHSeWKjmSlFND1mxGvl6LnLgWokVfVHVq51fe67vVzD1hPy8HZ8u9tWJeJ//3sXwRkInsm5sbtzxU7haYRe0VPhgEBPQLYHCp/4SAl2EfKUpsUASoSwslTnpUkRZQnquroiQP6JXk6NbR25BvRlCdNvQovD14k5F1pKz1HBK7Xr7G+iKwq6MnBP1O45yCUttb18URbkcOS6/ppTCq8audMXvITvQl1w0JsFyKY+aUo0cx1JMryMr6jCzju6YjDKUdSHSjZxKehMabIcy2fj6bFSMymgsGXf5GrlGgbIW/zuxw96PDi/spoPe4VsXgerDVJbMwdejM7j0xcNNSbVfOF4k4ODRmorrl6xqyqoXPU2VUTpyWvOT/CW5Wsajdvz1L9Ld5bmmwKH+NoyeVzk6F+u50CxqZ6nh7rylGxn9oy0oBHwjamhT05LTZhaVXMLi26GSEBdnDu6TO5t2FFwx4nw63KRtMBh9E6+RqK+/1qA7x9KTCeuwR5nbiA45wA0H8kpu0bVfFXznBNQyr3s5NUpv2XfANhhIdQDLxr0Or463gBaoo984m7tGi/mo+k2Ueebj7gItNnXKKysrRfaVBsbg0X5D1p1bAN53XkcdioYxCDP9zShDWedn3nFWZWHx7CBJV4pST+tIhkSdujcAAAnwSURBVExj3uFvcKzUst8LBEdF80WU9Lkx17dJZDIajQyoVygfzvSz4GL5GjlLjvIWgzzb4QS396KngcZcjosUWW8JDv1Dcby4iesBc/AYOICaNreoOH34dlpsVMw5/rdPQzhhDe/I1Xsj08GBkhk3zDvOqkjx4741PONdhnOuO/+2xNGuaUmWtXfvd4h1WvZ7A/mNZpP0v0M521RSne7qJwMdyjn0udKCi+U3dPmkFZTRsocU/a7fU5Oi6jevZZou5+6HwvUm1zKFz2cNNpWv3Lx5s5nkKR/J3E9iiY1dwgTrntY0Iwo5cknSIs8ykndbQnr8H6yvhTVTx4TFYXQukkkrbgPdOgrJVtaBwpVwOzD2Ep2ajIJSEzIRC/p7soxC5HpxvRf/NKjGZWBPuihKSU2WRYBPZnNJ6UbE06GyvN9BvDHGn6KkNH6w0DvOKCilTuFKkJ16PAxfPjXH1t9zqAuWab9NkJxbBorbkLRYjLl11DCo5Tra9wl2GMq5LEJabwZZdm4bT2b+SfayrVGMr5FrBUpqAx9gxG1s5Fl74QDKUrnGXJ9yypRF2Ht0pl2QC8pze8n77RQuIf2gtpDKZhWgkh7tO4fl1ZNbW10m18RGLcbqqOPVPxfQy7E139+2VEG/Djv2ZDuCYzUPRqjOG7yMiaac8Qw0dvzrkCuVci20PqpIa+d+qjcO9F/80+93tyKmdLpF3u8ttU7fVWdOZN7S1QZ7VPH5c0U4/N7GQg21pf2tvw6z/VWRm+RAiUNDSoX0KHJk7+UWhprqBqbryyX0cnTXavkjAwm5LYfcjrMFjjh3rpDpu++EWta+bfjyqbEyvjpSMCjOUVLWJoTe5mRPIQPp7FtCaj1vhIYM7IyvJS+NCnS4T+Ur1yhU1oJPEP2e78fODUdMvojVnEmO+4U1DGX29Gi+kJ+QRVe3rognI0a/jDZLhNE6ZFrZcIutcSNCXkdaCjGvayO8W1ekELqupyZDiDLpEDuUA3jYoE+nONp5MGPWjmUMINeqm+9vOu+udZXyvUeorz3IkT8OMgj4SxIWfxTKND3pSiFrlx6A9wfrZDOpNyOKJvOJ3Fa9fqSlsOZIR2ZZ8+Rhx1Fepi+borWRY8mYNJ2sLuw4yo5u0YyTjYvJDCpGMLhhUEeqrVhHauRRbl1bDW/EPFV1qcdWvUYM5Dr6/bUA/fWmsdWSi0+e5X9pwYyT9SUtIYVLozvpllMEG2S8ma835me/PsDFvhPo+2x/dm6wMi1idQLpa4DZcwj7f0PkJzQZWGpz87n5yAB8L37N0cuA4wFKRswhoNXvXDQaXW86zq/2ZiT57InJID1Ge1weXTy/2pu+l0v4ecY10oepS2j130brkOnYfS225hY9ZHXUZHkzbbzWoTq/2pOE7plEqTKE1GR589fEcv6stzT1y8ltzd3ahsdAry8ye4ucGDffm0OfqyOtLTgd156EyCx664/d9y5kRebT1sWFIzrSFXtmxrRnbVwmcxKLmaM6qvNEwoizL2U+0WbosLS/9WG2v+qfr7owObGcPZHactY8QdHP4qLJWqJpR5JN7Zmvt06MZF8xkFNpyuhnM4G2qrrUtqrHTD7uptqpH+m9iBEbs7V1abKvWHD51Vb842QLFg5Tj6c91//Ph5NtCtG5TXUoN8h4E6I35vl74zk5eAHhw8YTlGQ6LaLa4Y432ccQBnb2pSQ13pbqqXsCu8DAwDt6MhwQEMCcOXNYunRpQ9lkG0bO5ZPxXbm2dxHLt1rzOpTAAE1WFCMp7gQCizCWNhPUTzu8kptAxlIPxlJemiJ04tvMGlTJviUf8J9mvoHQ/YA2g4uRFHcCgUUYSyMJ6tSEI+2bl4yn6/x89gzDopsF7xFzWTIhgAubXsfovj8hE3l7QTgVez5iucGWn+oib7MgvII9HxnZFVRQLzaVrzg7OzNkyBDzBRud7rwwuAsOpHNhj3DIBYJmy1hfQuxs8JJpI3L267fZdj6A4X+eRv+WTW2NQCBoNDpU8lB78y8rN2fy937MuoOV9H5+ieHGP94jmDtjEM7HvzHpkHuPmMuMQc4c/0Y45LeDTeUrLVu2xNv7Dt8cvEO6v/AOMwf6YF98gs3zNnDkbtStCAT3HIWs/TaVzjP1s82UkrQ+/q5/ArP34/X4vT2Lx8a05jcRLhcI7nKMSE4AadOednRtzFSMNiD168/Y6rWEYSMj+FEWLg8ZNZiO+Xv4yGgIHSCEUYM7kr/nI+NRdoFZbCpfcXd3Z/jw4fzwww930qRAIBAIBAKBQHBPYVP5SlVVFeXl5eYLCgQCgUAgEAgE9xE2dcorKirYtWuXLZsUCAQCgUAgEAiaPTZ1ygUCgUAgEAgEAoEhwikXCAQCgUAgEAiaGOGUCwQCgUAgEAgETYztd/R87BVW/zEUZyBz35u89+8Cm5sgEAgEAoFAIBA0J2zslD/GK2NDyRfOuEAgEAgEAoFAoMG28pWu/igcMrnws3DIBQKBQCAQCAQCNUJTLhAIBAKBQCAQNDHCKRcIBAKBQCAQCJoYmzrlXft0xqe8kOuVtmxVIBAIBAKBQCBo3tjkRc+uz77J7EcCKD/1DUtfP0CZLRoVCAQCgUAgEAjuEmwSKT//z2XMmTWLL4of5/0PZjDY1RatCgQCgUAgEAgEdwc2la+cP3aJPBdPApxt2apAIBAIBAKBQNC8ES96CgQCgUAgEAgETYxwygUCgUAgEAgEgiZGOOUCgUAgEAgEAkETY1un/Hw2ypr2RPxxMOJdT4FAIBAIBAKBQMLGkfKf+Wz9/1EW+jwrY2P581Netm1eIBAIBAKBQCBohtgkT7kO5//Jsjn/tHmzAoFAIBAIBAJBc0VoygUCgUAgEAgEgiZGOOUCgUAgEAgEAkETI5xygUAgEAgEAoGgiRFOuUAgEAgEAoFA0MQIp1wgEAgEAoFAIGhihFMuEAgEAoFAIBA0MXaBgYF1TW2EnD5PL2ZM15ZkHfiEuH3FxgsFjmTaxP74tVD9fOMs29b9wKlKm5kpEAgEAoFAIBA0GFblKZ8zZw4BAQEWlV26dKnekUBGTnuC1oc38sMpX0ZOm0iHS2tMO94m6cPTf+qPy/ltrPzhFNb54X2Y0n8B3Ys38Pq5/dzUOTeB1x8fSdnJeXzq9DobezxoODjlx/j80EoO+L1l/DwARRw7No/LbTfyZJsUqXytvI2n8ctaZ6R90/YObqP/QCOdxJ9f59sa4+fTz0/j7YwbZupQl+ti8jwA+bt49fiXlAK9Qj5mTrCv5vGKbjtS37q2kF2rHq9a2bEA3bEruiobC/fZLO/7ML4VutdFh33Jkw4/qeyobw5VfXU4Ydiuuu4CbX9MY6Qvqnn9tEB/1tRl9c8bq0NWm7zfsjnSHVOBQCAQCAT3C/8ftpuiOSVbAW0AAAAASUVORK5CYII=;" parent="6dMJGXCS0I9ftsZN87XB-1" vertex="1">
                    <mxGeometry x="780" y="470" width="741" height="214" as="geometry"/>
                </mxCell>
                <mxCell id="pCnDFOAcOZm_-gvaMoIE-51" value="&lt;div&gt;Level-&amp;gt;AddTickFunction(TickFunction);&lt;/div&gt;&lt;div&gt;&lt;span style=&quot;&quot;&gt;&#9;&#9;&lt;/span&gt;TickFunction-&amp;gt;InternalData-&amp;gt;TickTaskLevel = Level;&lt;/div&gt;" style="text;html=1;align=center;verticalAlign=middle;resizable=0;points=[];autosize=1;strokeColor=none;fillColor=none;" parent="6dMJGXCS0I9ftsZN87XB-1" vertex="1">
                    <mxGeometry x="404" y="670" width="300" height="40" as="geometry"/>
                </mxCell>
                <mxCell id="pCnDFOAcOZm_-gvaMoIE-52" value="相互引用" style="text;html=1;align=center;verticalAlign=middle;resizable=0;points=[];autosize=1;strokeColor=none;fillColor=none;" parent="6dMJGXCS0I9ftsZN87XB-1" vertex="1">
                    <mxGeometry x="485" y="645" width="70" height="30" as="geometry"/>
                </mxCell>
                <mxCell id="pCnDFOAcOZm_-gvaMoIE-54" value="启用勾函数的主列表" style="text;html=1;align=center;verticalAlign=middle;resizable=0;points=[];autosize=1;strokeColor=none;fillColor=none;" parent="6dMJGXCS0I9ftsZN87XB-1" vertex="1">
                    <mxGeometry x="995" y="-640.5" width="130" height="30" as="geometry"/>
                </mxCell>
                <mxCell id="1" value="Tick" style="shape=step;perimeter=stepPerimeter;whiteSpace=wrap;html=1;fixedSize=1;" parent="6dMJGXCS0I9ftsZN87XB-1" vertex="1">
                    <mxGeometry x="60" y="1010" width="120" height="80" as="geometry"/>
                </mxCell>
                <mxCell id="2" value="&lt;span style=&quot;&quot;&gt;UWorld&lt;/span&gt;" style="text;html=1;align=center;verticalAlign=middle;resizable=0;points=[];autosize=1;strokeColor=none;fillColor=none;" parent="6dMJGXCS0I9ftsZN87XB-1" vertex="1">
                    <mxGeometry x="70" y="975" width="60" height="30" as="geometry"/>
                </mxCell>
                <mxCell id="3" value="StartFrame" style="shape=step;perimeter=stepPerimeter;whiteSpace=wrap;html=1;fixedSize=1;" parent="6dMJGXCS0I9ftsZN87XB-1" vertex="1">
                    <mxGeometry x="260" y="1010" width="120" height="80" as="geometry"/>
                </mxCell>
                <mxCell id="4" value="&#10;&lt;span style=&quot;color: rgb(240, 240, 240); font-family: Helvetica; font-size: 12px; font-style: normal; font-variant-ligatures: normal; font-variant-caps: normal; font-weight: 400; letter-spacing: normal; orphans: 2; text-align: center; text-indent: 0px; text-transform: none; widows: 2; word-spacing: 0px; -webkit-text-stroke-width: 0px; background-color: rgb(42, 37, 47); text-decoration-thickness: initial; text-decoration-style: initial; text-decoration-color: initial; float: none; display: inline !important;&quot;&gt;FTickTaskManager&lt;/span&gt;&#10;&#10;" style="text;html=1;align=center;verticalAlign=middle;resizable=0;points=[];autosize=1;strokeColor=none;fillColor=none;" parent="6dMJGXCS0I9ftsZN87XB-1" vertex="1">
                    <mxGeometry x="260" y="960" width="120" height="60" as="geometry"/>
                </mxCell>
                <mxCell id="5" value="FTickContext" style="swimlane;fontStyle=1;align=center;verticalAlign=top;childLayout=stackLayout;horizontal=1;startSize=26;horizontalStack=0;resizeParent=1;resizeParentMax=0;resizeLast=0;collapsible=1;marginBottom=0;" parent="6dMJGXCS0I9ftsZN87XB-1" vertex="1">
                    <mxGeometry x="-840" y="110" width="160" height="86" as="geometry"/>
                </mxCell>
                <mxCell id="6" value="+ field: type" style="text;strokeColor=none;fillColor=none;align=left;verticalAlign=top;spacingLeft=4;spacingRight=4;overflow=hidden;rotatable=0;points=[[0,0.5],[1,0.5]];portConstraint=eastwest;" parent="5" vertex="1">
                    <mxGeometry y="26" width="160" height="26" as="geometry"/>
                </mxCell>
                <mxCell id="7" value="" style="line;strokeWidth=1;fillColor=none;align=left;verticalAlign=middle;spacingTop=-1;spacingLeft=3;spacingRight=3;rotatable=0;labelPosition=right;points=[];portConstraint=eastwest;strokeColor=inherit;" parent="5" vertex="1">
                    <mxGeometry y="52" width="160" height="8" as="geometry"/>
                </mxCell>
                <mxCell id="8" value="+ method(type): type" style="text;strokeColor=none;fillColor=none;align=left;verticalAlign=top;spacingLeft=4;spacingRight=4;overflow=hidden;rotatable=0;points=[[0,0.5],[1,0.5]];portConstraint=eastwest;" parent="5" vertex="1">
                    <mxGeometry y="60" width="160" height="26" as="geometry"/>
                </mxCell>
                <mxCell id="10" value="ELevelTick" style="swimlane;fontStyle=0;childLayout=stackLayout;horizontal=1;startSize=26;fillColor=none;horizontalStack=0;resizeParent=1;resizeParentMax=0;resizeLast=0;collapsible=1;marginBottom=0;" parent="6dMJGXCS0I9ftsZN87XB-1" vertex="1">
                    <mxGeometry x="-160" y="-140" width="140" height="130" as="geometry"/>
                </mxCell>
                <mxCell id="11" value="LEVELTICK_TimeOnly" style="text;strokeColor=none;fillColor=none;align=left;verticalAlign=top;spacingLeft=4;spacingRight=4;overflow=hidden;rotatable=0;points=[[0,0.5],[1,0.5]];portConstraint=eastwest;" parent="10" vertex="1">
                    <mxGeometry y="26" width="140" height="26" as="geometry"/>
                </mxCell>
                <mxCell id="12" value="LEVELTICK_ViewportsOnly" style="text;strokeColor=none;fillColor=none;align=left;verticalAlign=top;spacingLeft=4;spacingRight=4;overflow=hidden;rotatable=0;points=[[0,0.5],[1,0.5]];portConstraint=eastwest;" parent="10" vertex="1">
                    <mxGeometry y="52" width="140" height="26" as="geometry"/>
                </mxCell>
                <mxCell id="14" value="LEVELTICK_All" style="text;strokeColor=none;fillColor=none;align=left;verticalAlign=top;spacingLeft=4;spacingRight=4;overflow=hidden;rotatable=0;points=[[0,0.5],[1,0.5]];portConstraint=eastwest;" parent="10" vertex="1">
                    <mxGeometry y="78" width="140" height="26" as="geometry"/>
                </mxCell>
                <mxCell id="13" value="LEVELTICK_PauseTick" style="text;strokeColor=none;fillColor=none;align=left;verticalAlign=top;spacingLeft=4;spacingRight=4;overflow=hidden;rotatable=0;points=[[0,0.5],[1,0.5]];portConstraint=eastwest;" parent="10" vertex="1">
                    <mxGeometry y="104" width="140" height="26" as="geometry"/>
                </mxCell>
                <mxCell id="15" value="只更新级别时间。" style="text;html=1;align=center;verticalAlign=middle;resizable=0;points=[];autosize=1;strokeColor=none;fillColor=none;" parent="6dMJGXCS0I9ftsZN87XB-1" vertex="1">
                    <mxGeometry x="-290" y="-120" width="120" height="30" as="geometry"/>
                </mxCell>
                <mxCell id="16" value="更新时间和视口。" style="text;html=1;align=center;verticalAlign=middle;resizable=0;points=[];autosize=1;strokeColor=none;fillColor=none;" parent="6dMJGXCS0I9ftsZN87XB-1" vertex="1">
                    <mxGeometry x="-290" y="-90" width="120" height="30" as="geometry"/>
                </mxCell>
                <mxCell id="18" value="时间等于0，暂停。组件不会滴答作响。" style="text;html=1;align=center;verticalAlign=middle;resizable=0;points=[];autosize=1;strokeColor=none;fillColor=none;" parent="6dMJGXCS0I9ftsZN87XB-1" vertex="1">
                    <mxGeometry x="-375" y="-33" width="230" height="30" as="geometry"/>
                </mxCell>
                <mxCell id="19" value="ETickingGroup" style="swimlane;fontStyle=0;childLayout=stackLayout;horizontal=1;startSize=26;fillColor=none;horizontalStack=0;resizeParent=1;resizeParentMax=0;resizeLast=0;collapsible=1;marginBottom=0;" parent="6dMJGXCS0I9ftsZN87XB-1" vertex="1">
                    <mxGeometry x="40" y="-284" width="140" height="104" as="geometry"/>
                </mxCell>
                <mxCell id="20" value="+ field: type" style="text;strokeColor=none;fillColor=none;align=left;verticalAlign=top;spacingLeft=4;spacingRight=4;overflow=hidden;rotatable=0;points=[[0,0.5],[1,0.5]];portConstraint=eastwest;" parent="19" vertex="1">
                    <mxGeometry y="26" width="140" height="26" as="geometry"/>
                </mxCell>
                <mxCell id="21" value="+ field: type" style="text;strokeColor=none;fillColor=none;align=left;verticalAlign=top;spacingLeft=4;spacingRight=4;overflow=hidden;rotatable=0;points=[[0,0.5],[1,0.5]];portConstraint=eastwest;" parent="19" vertex="1">
                    <mxGeometry y="52" width="140" height="26" as="geometry"/>
                </mxCell>
                <mxCell id="22" value="+ field: type" style="text;strokeColor=none;fillColor=none;align=left;verticalAlign=top;spacingLeft=4;spacingRight=4;overflow=hidden;rotatable=0;points=[[0,0.5],[1,0.5]];portConstraint=eastwest;" parent="19" vertex="1">
                    <mxGeometry y="78" width="140" height="26" as="geometry"/>
                </mxCell>
                <mxCell id="23" value="确定标记函数属于哪个标记组。" style="text;html=1;align=center;verticalAlign=middle;resizable=0;points=[];autosize=1;strokeColor=none;fillColor=none;" parent="6dMJGXCS0I9ftsZN87XB-1" vertex="1">
                    <mxGeometry x="5" y="-315" width="190" height="30" as="geometry"/>
                </mxCell>
                <mxCell id="25" value="FTickTaskSequencer" style="swimlane;fontStyle=1;align=center;verticalAlign=top;childLayout=stackLayout;horizontal=1;startSize=26;horizontalStack=0;resizeParent=1;resizeParentMax=0;resizeLast=0;collapsible=1;marginBottom=0;" parent="6dMJGXCS0I9ftsZN87XB-1" vertex="1">
                    <mxGeometry x="-410" y="110" width="160" height="86" as="geometry"/>
                </mxCell>
                <mxCell id="26" value="+ field: type" style="text;strokeColor=none;fillColor=none;align=left;verticalAlign=top;spacingLeft=4;spacingRight=4;overflow=hidden;rotatable=0;points=[[0,0.5],[1,0.5]];portConstraint=eastwest;" parent="25" vertex="1">
                    <mxGeometry y="26" width="160" height="26" as="geometry"/>
                </mxCell>
                <mxCell id="27" value="" style="line;strokeWidth=1;fillColor=none;align=left;verticalAlign=middle;spacingTop=-1;spacingLeft=3;spacingRight=3;rotatable=0;labelPosition=right;points=[];portConstraint=eastwest;strokeColor=inherit;" parent="25" vertex="1">
                    <mxGeometry y="52" width="160" height="8" as="geometry"/>
                </mxCell>
                <mxCell id="28" value="void StartFrame()" style="text;strokeColor=none;fillColor=none;align=left;verticalAlign=top;spacingLeft=4;spacingRight=4;overflow=hidden;rotatable=0;points=[[0,0.5],[1,0.5]];portConstraint=eastwest;" parent="25" vertex="1">
                    <mxGeometry y="60" width="160" height="26" as="geometry"/>
                </mxCell>
                <mxCell id="29" value="它处理实际的标记任务以及开始和完成标记组" style="text;html=1;align=center;verticalAlign=middle;resizable=0;points=[];autosize=1;strokeColor=none;fillColor=none;" parent="6dMJGXCS0I9ftsZN87XB-1" vertex="1">
                    <mxGeometry x="-460" y="90" width="260" height="30" as="geometry"/>
                </mxCell>
                <mxCell id="30" value="在帧开始时重置对象的内部状态" style="text;html=1;align=center;verticalAlign=middle;resizable=0;points=[];autosize=1;strokeColor=none;fillColor=none;" parent="6dMJGXCS0I9ftsZN87XB-1" vertex="1">
                    <mxGeometry x="-595" y="166" width="190" height="30" as="geometry"/>
                </mxCell>
                <mxCell id="33" value="FillLevelList" style="shape=step;perimeter=stepPerimeter;whiteSpace=wrap;html=1;fixedSize=1;" parent="6dMJGXCS0I9ftsZN87XB-1" vertex="1">
                    <mxGeometry x="440" y="1005" width="120" height="80" as="geometry"/>
                </mxCell>
                <mxCell id="35" value="收集world 和 level 的tick" style="text;html=1;align=center;verticalAlign=middle;resizable=0;points=[];autosize=1;strokeColor=none;fillColor=none;" parent="6dMJGXCS0I9ftsZN87XB-1" vertex="1">
                    <mxGeometry x="415" y="965" width="150" height="30" as="geometry"/>
                </mxCell>
                <mxCell id="37" value="将该级别的刻度排队" style="text;html=1;align=center;verticalAlign=middle;resizable=0;points=[];autosize=1;strokeColor=none;fillColor=none;" parent="6dMJGXCS0I9ftsZN87XB-1" vertex="1">
                    <mxGeometry x="1020" y="-387.5" width="130" height="30" as="geometry"/>
                </mxCell>
                <mxCell id="39" value="StartFrame" style="shape=step;perimeter=stepPerimeter;whiteSpace=wrap;html=1;fixedSize=1;" parent="6dMJGXCS0I9ftsZN87XB-1" vertex="1">
                    <mxGeometry x="630" y="1020" width="120" height="80" as="geometry"/>
                </mxCell>
                <mxCell id="40" value="FTickTaskLevel" style="text;html=1;align=center;verticalAlign=middle;resizable=0;points=[];autosize=1;strokeColor=none;fillColor=none;" parent="6dMJGXCS0I9ftsZN87XB-1" vertex="1">
                    <mxGeometry x="625" y="965" width="110" height="30" as="geometry"/>
                </mxCell>
                <mxCell id="41" value="QueueAllTicks" style="shape=step;perimeter=stepPerimeter;whiteSpace=wrap;html=1;fixedSize=1;" parent="6dMJGXCS0I9ftsZN87XB-1" vertex="1">
                    <mxGeometry x="810" y="1020" width="120" height="80" as="geometry"/>
                </mxCell>
                <mxCell id="42" value="QueueTickFunction" style="shape=step;perimeter=stepPerimeter;whiteSpace=wrap;html=1;fixedSize=1;" parent="6dMJGXCS0I9ftsZN87XB-1" vertex="1">
                    <mxGeometry x="980" y="960" width="120" height="80" as="geometry"/>
                </mxCell>
                <mxCell id="43" value="RescheduleForInterval" style="shape=step;perimeter=stepPerimeter;whiteSpace=wrap;html=1;fixedSize=1;" parent="6dMJGXCS0I9ftsZN87XB-1" vertex="1">
                    <mxGeometry x="970" y="1085" width="120" height="80" as="geometry"/>
                </mxCell>
                <mxCell id="44" value="FTickFunction" style="text;html=1;align=center;verticalAlign=middle;resizable=0;points=[];autosize=1;strokeColor=none;fillColor=none;" parent="6dMJGXCS0I9ftsZN87XB-1" vertex="1">
                    <mxGeometry x="970" y="920" width="100" height="30" as="geometry"/>
                </mxCell>
                <mxCell id="pCnDFOAcOZm_-gvaMoIE-49" value="ULevel 实例化的时候会创建 TickTaskLevel" style="html=1;" parent="6dMJGXCS0I9ftsZN87XB-1" vertex="1">
                    <mxGeometry x="890" y="400" width="330" height="50" as="geometry"/>
                </mxCell>
                <mxCell id="48" value="&lt;div&gt;如果我们已经完成访问这个tick函数，但这一帧以上翻译结果来自有道神经网络翻译（YNMT）· 通用场景&lt;/div&gt;&lt;div&gt;&lt;br&gt;&lt;/div&gt;" style="text;html=1;align=center;verticalAlign=middle;resizable=0;points=[];autosize=1;strokeColor=none;fillColor=none;" parent="6dMJGXCS0I9ftsZN87XB-1" vertex="1">
                    <mxGeometry x="440" y="-73" width="570" height="40" as="geometry"/>
                </mxCell>
                <mxCell id="50" value="使用tick函数的前提条件" style="text;html=1;align=center;verticalAlign=middle;resizable=0;points=[];autosize=1;strokeColor=none;fillColor=none;" parent="6dMJGXCS0I9ftsZN87XB-1" vertex="1">
                    <mxGeometry x="165" y="165" width="150" height="30" as="geometry"/>
                </mxCell>
                <mxCell id="51" value="FTickPrerequisite" style="swimlane;fontStyle=1;align=center;verticalAlign=top;childLayout=stackLayout;horizontal=1;startSize=26;horizontalStack=0;resizeParent=1;resizeParentMax=0;resizeLast=0;collapsible=1;marginBottom=0;" parent="6dMJGXCS0I9ftsZN87XB-1" vertex="1">
                    <mxGeometry x="240" y="-210" width="270" height="112" as="geometry"/>
                </mxCell>
                <mxCell id="56" value="TWeakObjectPtr&lt;class UObject&gt; PrerequisiteObject;" style="text;strokeColor=none;fillColor=none;align=left;verticalAlign=top;spacingLeft=4;spacingRight=4;overflow=hidden;rotatable=0;points=[[0,0.5],[1,0.5]];portConstraint=eastwest;" parent="51" vertex="1">
                    <mxGeometry y="26" width="270" height="26" as="geometry"/>
                </mxCell>
                <mxCell id="52" value="struct FTickFunction*&#9;&#9;PrerequisiteTickFunction;" style="text;strokeColor=none;fillColor=none;align=left;verticalAlign=top;spacingLeft=4;spacingRight=4;overflow=hidden;rotatable=0;points=[[0,0.5],[1,0.5]];portConstraint=eastwest;" parent="51" vertex="1">
                    <mxGeometry y="52" width="270" height="26" as="geometry"/>
                </mxCell>
                <mxCell id="53" value="" style="line;strokeWidth=1;fillColor=none;align=left;verticalAlign=middle;spacingTop=-1;spacingLeft=3;spacingRight=3;rotatable=0;labelPosition=right;points=[];portConstraint=eastwest;strokeColor=inherit;" parent="51" vertex="1">
                    <mxGeometry y="78" width="270" height="8" as="geometry"/>
                </mxCell>
                <mxCell id="54" value="+ method(type): type" style="text;strokeColor=none;fillColor=none;align=left;verticalAlign=top;spacingLeft=4;spacingRight=4;overflow=hidden;rotatable=0;points=[[0,0.5],[1,0.5]];portConstraint=eastwest;" parent="51" vertex="1">
                    <mxGeometry y="86" width="270" height="26" as="geometry"/>
                </mxCell>
                <mxCell id="55" value="这是一个小结构，以容纳先决条件tick函数" style="text;html=1;align=center;verticalAlign=middle;resizable=0;points=[];autosize=1;strokeColor=none;fillColor=none;" parent="6dMJGXCS0I9ftsZN87XB-1" vertex="1">
                    <mxGeometry x="219" y="-247" width="250" height="30" as="geometry"/>
                </mxCell>
                <mxCell id="61" value="QueueTickTask" style="shape=step;perimeter=stepPerimeter;whiteSpace=wrap;html=1;fixedSize=1;" parent="6dMJGXCS0I9ftsZN87XB-1" vertex="1">
                    <mxGeometry x="1140" y="960" width="120" height="80" as="geometry"/>
                </mxCell>
                <mxCell id="62" value="FTickTaskSequencer" style="text;html=1;align=center;verticalAlign=middle;resizable=0;points=[];autosize=1;strokeColor=none;fillColor=none;" parent="6dMJGXCS0I9ftsZN87XB-1" vertex="1">
                    <mxGeometry x="1110" y="920" width="140" height="30" as="geometry"/>
                </mxCell>
                <mxCell id="63" value="启动一个组件标记任务并添加完成句柄" style="text;html=1;align=center;verticalAlign=middle;resizable=0;points=[];autosize=1;strokeColor=none;fillColor=none;" parent="6dMJGXCS0I9ftsZN87XB-1" vertex="1">
                    <mxGeometry x="1130" y="1020" width="230" height="30" as="geometry"/>
                </mxCell>
                <mxCell id="64" value="StartTickTask" style="shape=step;perimeter=stepPerimeter;whiteSpace=wrap;html=1;fixedSize=1;" parent="6dMJGXCS0I9ftsZN87XB-1" vertex="1">
                    <mxGeometry x="1350" y="885" width="120" height="80" as="geometry"/>
                </mxCell>
                <mxCell id="66" value="这里创建了任务" style="text;html=1;align=center;verticalAlign=middle;resizable=0;points=[];autosize=1;strokeColor=none;fillColor=none;" parent="6dMJGXCS0I9ftsZN87XB-1" vertex="1">
                    <mxGeometry x="1345" y="840" width="110" height="30" as="geometry"/>
                </mxCell>
                <mxCell id="68" value="指向任务的指针，仅在安装期间使用。这往往是陈腐的。" style="text;html=1;align=center;verticalAlign=middle;resizable=0;points=[];autosize=1;strokeColor=none;fillColor=none;" parent="6dMJGXCS0I9ftsZN87XB-1" vertex="1">
                    <mxGeometry x="820" y="-500" width="320" height="30" as="geometry"/>
                </mxCell>
                <mxCell id="69" value="AddTickTaskCompletion" style="shape=step;perimeter=stepPerimeter;whiteSpace=wrap;html=1;fixedSize=1;" parent="6dMJGXCS0I9ftsZN87XB-1" vertex="1">
                    <mxGeometry x="1370" y="990" width="120" height="80" as="geometry"/>
                </mxCell>
                <mxCell id="70" value="FTickTaskManagerInterface" style="swimlane;fontStyle=1;align=center;verticalAlign=top;childLayout=stackLayout;horizontal=1;startSize=26;horizontalStack=0;resizeParent=1;resizeParentMax=0;resizeLast=0;collapsible=1;marginBottom=0;" parent="6dMJGXCS0I9ftsZN87XB-1" vertex="1">
                    <mxGeometry x="-1210" y="107" width="160" height="86" as="geometry"/>
                </mxCell>
                <mxCell id="71" value="+ field: type" style="text;strokeColor=none;fillColor=none;align=left;verticalAlign=top;spacingLeft=4;spacingRight=4;overflow=hidden;rotatable=0;points=[[0,0.5],[1,0.5]];portConstraint=eastwest;" parent="70" vertex="1">
                    <mxGeometry y="26" width="160" height="26" as="geometry"/>
                </mxCell>
                <mxCell id="72" value="" style="line;strokeWidth=1;fillColor=none;align=left;verticalAlign=middle;spacingTop=-1;spacingLeft=3;spacingRight=3;rotatable=0;labelPosition=right;points=[];portConstraint=eastwest;strokeColor=inherit;" parent="70" vertex="1">
                    <mxGeometry y="52" width="160" height="8" as="geometry"/>
                </mxCell>
                <mxCell id="73" value="+ method(type): type" style="text;strokeColor=none;fillColor=none;align=left;verticalAlign=top;spacingLeft=4;spacingRight=4;overflow=hidden;rotatable=0;points=[[0,0.5],[1,0.5]];portConstraint=eastwest;" parent="70" vertex="1">
                    <mxGeometry y="60" width="160" height="26" as="geometry"/>
                </mxCell>
                <mxCell id="75" value="RunTickGroup" style="shape=step;perimeter=stepPerimeter;whiteSpace=wrap;html=1;fixedSize=1;" parent="6dMJGXCS0I9ftsZN87XB-1" vertex="1">
                    <mxGeometry x="260" y="1210" width="120" height="80" as="geometry"/>
                </mxCell>
                <mxCell id="76" value="ReleaseTickGroup" style="shape=step;perimeter=stepPerimeter;whiteSpace=wrap;html=1;fixedSize=1;" parent="6dMJGXCS0I9ftsZN87XB-1" vertex="1">
                    <mxGeometry x="435" y="1210" width="120" height="80" as="geometry"/>
                </mxCell>
                <mxCell id="77" value="TickTaskSequencer" style="text;html=1;align=center;verticalAlign=middle;resizable=0;points=[];autosize=1;strokeColor=none;fillColor=none;" parent="6dMJGXCS0I9ftsZN87XB-1" vertex="1">
                    <mxGeometry x="440" y="1160" width="130" height="30" as="geometry"/>
                </mxCell>
                <mxCell id="80" value="执行已经创建的任务" style="text;html=1;align=center;verticalAlign=middle;resizable=0;points=[];autosize=1;strokeColor=none;fillColor=none;" parent="6dMJGXCS0I9ftsZN87XB-1" vertex="1">
                    <mxGeometry x="405" y="1315" width="130" height="30" as="geometry"/>
                </mxCell>
                <mxCell id="81" value="DispatchTickGroup" style="shape=step;perimeter=stepPerimeter;whiteSpace=wrap;html=1;fixedSize=1;" parent="6dMJGXCS0I9ftsZN87XB-1" vertex="1">
                    <mxGeometry x="610" y="1200" width="120" height="80" as="geometry"/>
                </mxCell>
                <mxCell id="82" value="真正执行任务的地方" style="text;html=1;align=center;verticalAlign=middle;resizable=0;points=[];autosize=1;strokeColor=none;fillColor=none;" parent="6dMJGXCS0I9ftsZN87XB-1" vertex="1">
                    <mxGeometry x="595" y="1165" width="130" height="30" as="geometry"/>
                </mxCell>
                <mxCell id="1QxGmTCYHBrR_65N0WKA-84" value="实用程序数组，以避免在收集函数以重新调度时重新分配内存" style="text;html=1;align=center;verticalAlign=middle;resizable=0;points=[];autosize=1;strokeColor=none;fillColor=none;" parent="6dMJGXCS0I9ftsZN87XB-1" vertex="1">
                    <mxGeometry x="790" y="-470" width="350" height="30" as="geometry"/>
                </mxCell>
                <mxCell id="1QxGmTCYHBrR_65N0WKA-85" value="FTickScheduleDetails" style="swimlane;fontStyle=1;align=center;verticalAlign=top;childLayout=stackLayout;horizontal=1;startSize=26;horizontalStack=0;resizeParent=1;resizeParentMax=0;resizeLast=0;collapsible=1;marginBottom=0;" parent="6dMJGXCS0I9ftsZN87XB-1" vertex="1">
                    <mxGeometry x="1090" y="-970" width="160" height="138" as="geometry"/>
                </mxCell>
                <mxCell id="1QxGmTCYHBrR_65N0WKA-86" value="float Cooldown;" style="text;strokeColor=none;fillColor=none;align=left;verticalAlign=top;spacingLeft=4;spacingRight=4;overflow=hidden;rotatable=0;points=[[0,0.5],[1,0.5]];portConstraint=eastwest;" parent="1QxGmTCYHBrR_65N0WKA-85" vertex="1">
                    <mxGeometry y="26" width="160" height="26" as="geometry"/>
                </mxCell>
                <mxCell id="1QxGmTCYHBrR_65N0WKA-90" value="FTickFunction* TickFunction;" style="text;strokeColor=none;fillColor=none;align=left;verticalAlign=top;spacingLeft=4;spacingRight=4;overflow=hidden;rotatable=0;points=[[0,0.5],[1,0.5]];portConstraint=eastwest;" parent="1QxGmTCYHBrR_65N0WKA-85" vertex="1">
                    <mxGeometry y="52" width="160" height="26" as="geometry"/>
                </mxCell>
                <mxCell id="1QxGmTCYHBrR_65N0WKA-89" value="bool bDeferredRemove;" style="text;strokeColor=none;fillColor=none;align=left;verticalAlign=top;spacingLeft=4;spacingRight=4;overflow=hidden;rotatable=0;points=[[0,0.5],[1,0.5]];portConstraint=eastwest;" parent="1QxGmTCYHBrR_65N0WKA-85" vertex="1">
                    <mxGeometry y="78" width="160" height="26" as="geometry"/>
                </mxCell>
                <mxCell id="1QxGmTCYHBrR_65N0WKA-87" value="" style="line;strokeWidth=1;fillColor=none;align=left;verticalAlign=middle;spacingTop=-1;spacingLeft=3;spacingRight=3;rotatable=0;labelPosition=right;points=[];portConstraint=eastwest;strokeColor=inherit;" parent="1QxGmTCYHBrR_65N0WKA-85" vertex="1">
                    <mxGeometry y="104" width="160" height="8" as="geometry"/>
                </mxCell>
                <mxCell id="1QxGmTCYHBrR_65N0WKA-88" value="+ method(type): type" style="text;strokeColor=none;fillColor=none;align=left;verticalAlign=top;spacingLeft=4;spacingRight=4;overflow=hidden;rotatable=0;points=[[0,0.5],[1,0.5]];portConstraint=eastwest;" parent="1QxGmTCYHBrR_65N0WKA-85" vertex="1">
                    <mxGeometry y="112" width="160" height="26" as="geometry"/>
                </mxCell>
                <mxCell id="1QxGmTCYHBrR_65N0WKA-92" value="ScheduleTickFunctionCooldowns" style="text;html=1;align=center;verticalAlign=middle;resizable=0;points=[];autosize=1;strokeColor=none;fillColor=none;" parent="6dMJGXCS0I9ftsZN87XB-1" vertex="1">
                    <mxGeometry x="1800" y="670" width="200" height="30" as="geometry"/>
                </mxCell>
                <mxCell id="1QxGmTCYHBrR_65N0WKA-93" value="如何计算累加值的" style="text;html=1;align=center;verticalAlign=middle;resizable=0;points=[];autosize=1;strokeColor=none;fillColor=none;" parent="6dMJGXCS0I9ftsZN87XB-1" vertex="1">
                    <mxGeometry x="1800" y="705" width="120" height="30" as="geometry"/>
                </mxCell>
                <mxCell id="1QxGmTCYHBrR_65N0WKA-95" value="FCoolingDownTickFunctionList" style="swimlane;fontStyle=1;align=center;verticalAlign=top;childLayout=stackLayout;horizontal=1;startSize=26;horizontalStack=0;resizeParent=1;resizeParentMax=0;resizeLast=0;collapsible=1;marginBottom=0;" parent="6dMJGXCS0I9ftsZN87XB-1" vertex="1">
                    <mxGeometry x="704" y="-970" width="220" height="86" as="geometry"/>
                </mxCell>
                <mxCell id="1QxGmTCYHBrR_65N0WKA-96" value="FTickFunction* Head;" style="text;strokeColor=none;fillColor=none;align=left;verticalAlign=top;spacingLeft=4;spacingRight=4;overflow=hidden;rotatable=0;points=[[0,0.5],[1,0.5]];portConstraint=eastwest;" parent="1QxGmTCYHBrR_65N0WKA-95" vertex="1">
                    <mxGeometry y="26" width="220" height="26" as="geometry"/>
                </mxCell>
                <mxCell id="1QxGmTCYHBrR_65N0WKA-97" value="" style="line;strokeWidth=1;fillColor=none;align=left;verticalAlign=middle;spacingTop=-1;spacingLeft=3;spacingRight=3;rotatable=0;labelPosition=right;points=[];portConstraint=eastwest;strokeColor=inherit;" parent="1QxGmTCYHBrR_65N0WKA-95" vertex="1">
                    <mxGeometry y="52" width="220" height="8" as="geometry"/>
                </mxCell>
                <mxCell id="1QxGmTCYHBrR_65N0WKA-98" value="+ method(type): type" style="text;strokeColor=none;fillColor=none;align=left;verticalAlign=top;spacingLeft=4;spacingRight=4;overflow=hidden;rotatable=0;points=[[0,0.5],[1,0.5]];portConstraint=eastwest;" parent="1QxGmTCYHBrR_65N0WKA-95" vertex="1">
                    <mxGeometry y="60" width="220" height="26" as="geometry"/>
                </mxCell>
                <mxCell id="1QxGmTCYHBrR_65N0WKA-99" value="单项链表" style="text;html=1;align=center;verticalAlign=middle;resizable=0;points=[];autosize=1;strokeColor=none;fillColor=none;" parent="6dMJGXCS0I9ftsZN87XB-1" vertex="1">
                    <mxGeometry x="690" y="-1000" width="70" height="30" as="geometry"/>
                </mxCell>
                <mxCell id="83" value="SetActorTickEnabled" style="shape=step;perimeter=stepPerimeter;whiteSpace=wrap;html=1;fixedSize=1;" parent="6dMJGXCS0I9ftsZN87XB-1" vertex="1">
                    <mxGeometry x="75" y="1590" width="120" height="80" as="geometry"/>
                </mxCell>
                <mxCell id="84" value="外部可以 设置&lt;br&gt;&amp;nbsp;开启还是暂停&lt;br&gt;更新间隔&lt;br&gt;依赖" style="text;html=1;align=center;verticalAlign=middle;resizable=0;points=[];autosize=1;strokeColor=none;fillColor=none;" parent="6dMJGXCS0I9ftsZN87XB-1" vertex="1">
                    <mxGeometry x="65" y="1470" width="100" height="70" as="geometry"/>
                </mxCell>
                <mxCell id="86" value="动态开关&amp;nbsp; 还是要看&amp;nbsp;bCanEverTick 这个可以看成总开关&amp;nbsp;" style="text;html=1;align=center;verticalAlign=middle;resizable=0;points=[];autosize=1;strokeColor=none;fillColor=none;" parent="6dMJGXCS0I9ftsZN87XB-1" vertex="1">
                    <mxGeometry x="-125" y="1590" width="320" height="30" as="geometry"/>
                </mxCell>
                <mxCell id="88" value="如果为false，这个tick函数将永远不会被注册并且永远不会打钩。只能在默认情况下设置。" style="text;html=1;align=center;verticalAlign=middle;resizable=0;points=[];autosize=1;strokeColor=none;fillColor=none;" parent="6dMJGXCS0I9ftsZN87XB-1" vertex="1">
                    <mxGeometry x="-170" y="190" width="500" height="30" as="geometry"/>
                </mxCell>
                <mxCell id="89" value="SetTickFunctionEnable" style="shape=step;perimeter=stepPerimeter;whiteSpace=wrap;html=1;fixedSize=1;" parent="6dMJGXCS0I9ftsZN87XB-1" vertex="1">
                    <mxGeometry x="315" y="1600" width="120" height="80" as="geometry"/>
                </mxCell>
                <mxCell id="90" value="FTickFunction" style="text;html=1;align=center;verticalAlign=middle;resizable=0;points=[];autosize=1;strokeColor=none;fillColor=none;" parent="6dMJGXCS0I9ftsZN87XB-1" vertex="1">
                    <mxGeometry x="280" y="1565" width="100" height="30" as="geometry"/>
                </mxCell>
                <mxCell id="92" value="是否注册了" style="text;html=1;align=center;verticalAlign=middle;resizable=0;points=[];autosize=1;strokeColor=none;fillColor=none;" parent="6dMJGXCS0I9ftsZN87XB-1" vertex="1">
                    <mxGeometry x="930" y="-50" width="80" height="30" as="geometry"/>
                </mxCell>
                <mxCell id="93" value="如果没有被标记， 就先设置 tickstate 为相应的状态" style="text;html=1;align=center;verticalAlign=middle;resizable=0;points=[];autosize=1;strokeColor=none;fillColor=none;" parent="6dMJGXCS0I9ftsZN87XB-1" vertex="1">
                    <mxGeometry x="240" y="1754" width="290" height="30" as="geometry"/>
                </mxCell>
                <mxCell id="94" value="如果已经注册了&amp;nbsp;" style="text;html=1;align=center;verticalAlign=middle;resizable=0;points=[];autosize=1;strokeColor=none;fillColor=none;" parent="6dMJGXCS0I9ftsZN87XB-1" vertex="1">
                    <mxGeometry x="530" y="1640" width="110" height="30" as="geometry"/>
                </mxCell>
                <mxCell id="101" value="bInEnabled == false 且 TickState 不等于 Disabled" style="text;html=1;align=center;verticalAlign=middle;resizable=0;points=[];autosize=1;strokeColor=none;fillColor=none;" parent="6dMJGXCS0I9ftsZN87XB-1" vertex="1">
                    <mxGeometry x="545" y="1710" width="290" height="30" as="geometry"/>
                </mxCell>
                <mxCell id="102" value="bInEnabled == true 且 TickState 不等于 Disabled" style="text;html=1;align=center;verticalAlign=middle;resizable=0;points=[];autosize=1;strokeColor=none;fillColor=none;" parent="6dMJGXCS0I9ftsZN87XB-1" vertex="1">
                    <mxGeometry x="550" y="1750" width="280" height="30" as="geometry"/>
                </mxCell>
                <mxCell id="103" value="bInEnabled == true 且 TickState 等于 Disabled" style="text;html=1;align=center;verticalAlign=middle;resizable=0;points=[];autosize=1;strokeColor=none;fillColor=none;" parent="6dMJGXCS0I9ftsZN87XB-1" vertex="1">
                    <mxGeometry x="550" y="1810" width="270" height="30" as="geometry"/>
                </mxCell>
                <mxCell id="104" value="bInEnabled == false 且 TickState 等于 Disabled" style="text;html=1;align=center;verticalAlign=middle;resizable=0;points=[];autosize=1;strokeColor=none;fillColor=none;" parent="6dMJGXCS0I9ftsZN87XB-1" vertex="1">
                    <mxGeometry x="550" y="1780" width="280" height="30" as="geometry"/>
                </mxCell>
                <mxCell id="105" value="true" style="text;html=1;align=center;verticalAlign=middle;resizable=0;points=[];autosize=1;strokeColor=none;fillColor=none;" parent="6dMJGXCS0I9ftsZN87XB-1" vertex="1">
                    <mxGeometry x="880" y="1710" width="40" height="30" as="geometry"/>
                </mxCell>
                <mxCell id="108" value="false" style="text;html=1;align=center;verticalAlign=middle;resizable=0;points=[];autosize=1;strokeColor=none;fillColor=none;" parent="6dMJGXCS0I9ftsZN87XB-1" vertex="1">
                    <mxGeometry x="874" y="1750" width="50" height="30" as="geometry"/>
                </mxCell>
                <mxCell id="109" value="false" style="text;html=1;align=center;verticalAlign=middle;resizable=0;points=[];autosize=1;strokeColor=none;fillColor=none;" parent="6dMJGXCS0I9ftsZN87XB-1" vertex="1">
                    <mxGeometry x="875" y="1785" width="50" height="30" as="geometry"/>
                </mxCell>
                <mxCell id="110" value="true" style="text;html=1;align=center;verticalAlign=middle;resizable=0;points=[];autosize=1;strokeColor=none;fillColor=none;" parent="6dMJGXCS0I9ftsZN87XB-1" vertex="1">
                    <mxGeometry x="870" y="1815" width="40" height="30" as="geometry"/>
                </mxCell>
                <mxCell id="111" value="RemoveTickFunction" style="shape=step;perimeter=stepPerimeter;whiteSpace=wrap;html=1;fixedSize=1;" parent="6dMJGXCS0I9ftsZN87XB-1" vertex="1">
                    <mxGeometry x="754" y="1530" width="120" height="80" as="geometry"/>
                </mxCell>
                <mxCell id="112" value="AddTickFunction" style="shape=step;perimeter=stepPerimeter;whiteSpace=wrap;html=1;fixedSize=1;" parent="6dMJGXCS0I9ftsZN87XB-1" vertex="1">
                    <mxGeometry x="754" y="1630" width="120" height="80" as="geometry"/>
                </mxCell>
                <mxCell id="114" value="FActorComponentTickFunction" style="whiteSpace=wrap;html=1;" vertex="1" parent="6dMJGXCS0I9ftsZN87XB-1">
                    <mxGeometry x="890" y="175" width="120" height="60" as="geometry"/>
                </mxCell>
            </root>
        </mxGraphModel>
    </diagram>
    <diagram id="-0xhp-lDHrCjKy9bvylH" name="Lua自己的tick系统">
        <mxGraphModel dx="1135" dy="608" grid="1" gridSize="10" guides="1" tooltips="1" connect="1" arrows="1" fold="1" page="1" pageScale="1" pageWidth="827" pageHeight="1169" math="0" shadow="0">
            <root>
                <mxCell id="0"/>
                <mxCell id="1" parent="0"/>
                <mxCell id="ReyhrU6J1Q4DXh2NcHfE-1" value="永久的" style="text;html=1;align=center;verticalAlign=middle;resizable=0;points=[];autosize=1;strokeColor=none;fillColor=none;" parent="1" vertex="1">
                    <mxGeometry x="330" y="355" width="60" height="30" as="geometry"/>
                </mxCell>
                <mxCell id="ReyhrU6J1Q4DXh2NcHfE-2" value="限时的" style="text;html=1;align=center;verticalAlign=middle;resizable=0;points=[];autosize=1;strokeColor=none;fillColor=none;" parent="1" vertex="1">
                    <mxGeometry x="320" y="420" width="60" height="30" as="geometry"/>
                </mxCell>
                <mxCell id="ReyhrU6J1Q4DXh2NcHfE-5" value="tick 管理器" style="html=1;" parent="1" vertex="1">
                    <mxGeometry x="110" y="230" width="110" height="50" as="geometry"/>
                </mxCell>
                <mxCell id="ReyhrU6J1Q4DXh2NcHfE-9" value="Tick function" style="whiteSpace=wrap;html=1;" parent="1" vertex="1">
                    <mxGeometry x="640" y="320" width="120" height="60" as="geometry"/>
                </mxCell>
                <mxCell id="WkC7mkh8kTXhL8gitf5u-1" value="TickManager&#10;" style="swimlane;fontStyle=1;align=center;verticalAlign=top;childLayout=stackLayout;horizontal=1;startSize=26;horizontalStack=0;resizeParent=1;resizeParentMax=0;resizeLast=0;collapsible=1;marginBottom=0;" parent="1" vertex="1">
                    <mxGeometry x="730" y="520" width="240" height="86" as="geometry"/>
                </mxCell>
                <mxCell id="WkC7mkh8kTXhL8gitf5u-2" value="+ field: type" style="text;strokeColor=none;fillColor=none;align=left;verticalAlign=top;spacingLeft=4;spacingRight=4;overflow=hidden;rotatable=0;points=[[0,0.5],[1,0.5]];portConstraint=eastwest;" parent="WkC7mkh8kTXhL8gitf5u-1" vertex="1">
                    <mxGeometry y="26" width="240" height="26" as="geometry"/>
                </mxCell>
                <mxCell id="WkC7mkh8kTXhL8gitf5u-3" value="" style="line;strokeWidth=1;fillColor=none;align=left;verticalAlign=middle;spacingTop=-1;spacingLeft=3;spacingRight=3;rotatable=0;labelPosition=right;points=[];portConstraint=eastwest;strokeColor=inherit;" parent="WkC7mkh8kTXhL8gitf5u-1" vertex="1">
                    <mxGeometry y="52" width="240" height="8" as="geometry"/>
                </mxCell>
                <mxCell id="WkC7mkh8kTXhL8gitf5u-4" value="跑tick 的接口 应该在gamemode 中调用" style="text;strokeColor=none;fillColor=none;align=left;verticalAlign=top;spacingLeft=4;spacingRight=4;overflow=hidden;rotatable=0;points=[[0,0.5],[1,0.5]];portConstraint=eastwest;" parent="WkC7mkh8kTXhL8gitf5u-1" vertex="1">
                    <mxGeometry y="60" width="240" height="26" as="geometry"/>
                </mxCell>
                <mxCell id="5iylKZXCibfrmUKTTWxW-2" value="FTickFunction" style="swimlane;fontStyle=1;align=center;verticalAlign=top;childLayout=stackLayout;horizontal=1;startSize=26;horizontalStack=0;resizeParent=1;resizeParentMax=0;resizeLast=0;collapsible=1;marginBottom=0;" parent="1" vertex="1">
                    <mxGeometry x="60" y="550" width="230" height="164" as="geometry"/>
                </mxCell>
                <mxCell id="5iylKZXCibfrmUKTTWxW-13" value="状态（cd中 执行中， 未执行）" style="text;strokeColor=none;fillColor=none;align=left;verticalAlign=top;spacingLeft=4;spacingRight=4;overflow=hidden;rotatable=0;points=[[0,0.5],[1,0.5]];portConstraint=eastwest;" parent="5iylKZXCibfrmUKTTWxW-2" vertex="1">
                    <mxGeometry y="26" width="230" height="26" as="geometry"/>
                </mxCell>
                <mxCell id="o37cFrB2ECgQc44eybCR-1" value="间隔" style="text;strokeColor=none;fillColor=none;align=left;verticalAlign=top;spacingLeft=4;spacingRight=4;overflow=hidden;rotatable=0;points=[[0,0.5],[1,0.5]];portConstraint=eastwest;" parent="5iylKZXCibfrmUKTTWxW-2" vertex="1">
                    <mxGeometry y="52" width="230" height="26" as="geometry"/>
                </mxCell>
                <mxCell id="5iylKZXCibfrmUKTTWxW-3" value="组" style="text;strokeColor=none;fillColor=none;align=left;verticalAlign=top;spacingLeft=4;spacingRight=4;overflow=hidden;rotatable=0;points=[[0,0.5],[1,0.5]];portConstraint=eastwest;" parent="5iylKZXCibfrmUKTTWxW-2" vertex="1">
                    <mxGeometry y="78" width="230" height="26" as="geometry"/>
                </mxCell>
                <mxCell id="o37cFrB2ECgQc44eybCR-2" value="内部数据（是否被注册，是否有间隔）" style="text;strokeColor=none;fillColor=none;align=left;verticalAlign=top;spacingLeft=4;spacingRight=4;overflow=hidden;rotatable=0;points=[[0,0.5],[1,0.5]];portConstraint=eastwest;" parent="5iylKZXCibfrmUKTTWxW-2" vertex="1">
                    <mxGeometry y="104" width="230" height="26" as="geometry"/>
                </mxCell>
                <mxCell id="5iylKZXCibfrmUKTTWxW-4" value="" style="line;strokeWidth=1;fillColor=none;align=left;verticalAlign=middle;spacingTop=-1;spacingLeft=3;spacingRight=3;rotatable=0;labelPosition=right;points=[];portConstraint=eastwest;strokeColor=inherit;" parent="5iylKZXCibfrmUKTTWxW-2" vertex="1">
                    <mxGeometry y="130" width="230" height="8" as="geometry"/>
                </mxCell>
                <mxCell id="5iylKZXCibfrmUKTTWxW-5" value="+ method(type): type" style="text;strokeColor=none;fillColor=none;align=left;verticalAlign=top;spacingLeft=4;spacingRight=4;overflow=hidden;rotatable=0;points=[[0,0.5],[1,0.5]];portConstraint=eastwest;" parent="5iylKZXCibfrmUKTTWxW-2" vertex="1">
                    <mxGeometry y="138" width="230" height="26" as="geometry"/>
                </mxCell>
                <mxCell id="5iylKZXCibfrmUKTTWxW-6" value="每个要调用的类里要创建这个变量" style="text;html=1;align=center;verticalAlign=middle;resizable=0;points=[];autosize=1;strokeColor=none;fillColor=none;" parent="1" vertex="1">
                    <mxGeometry x="40" y="490" width="200" height="30" as="geometry"/>
                </mxCell>
                <mxCell id="5iylKZXCibfrmUKTTWxW-7" value="变量" style="text;html=1;align=center;verticalAlign=middle;resizable=0;points=[];autosize=1;strokeColor=none;fillColor=none;" parent="1" vertex="1">
                    <mxGeometry x="75" y="735" width="50" height="30" as="geometry"/>
                </mxCell>
                <mxCell id="5iylKZXCibfrmUKTTWxW-8" value="注册函数（要穿）" style="text;html=1;align=center;verticalAlign=middle;resizable=0;points=[];autosize=1;strokeColor=none;fillColor=none;" parent="1" vertex="1">
                    <mxGeometry x="55" y="765" width="120" height="30" as="geometry"/>
                </mxCell>
                <mxCell id="5iylKZXCibfrmUKTTWxW-9" value="取消函数" style="text;html=1;align=center;verticalAlign=middle;resizable=0;points=[];autosize=1;strokeColor=none;fillColor=none;" parent="1" vertex="1">
                    <mxGeometry x="80" y="790" width="70" height="30" as="geometry"/>
                </mxCell>
                <mxCell id="5iylKZXCibfrmUKTTWxW-10" value="动态切换" style="text;html=1;align=center;verticalAlign=middle;resizable=0;points=[];autosize=1;strokeColor=none;fillColor=none;" parent="1" vertex="1">
                    <mxGeometry x="80" y="820" width="70" height="30" as="geometry"/>
                </mxCell>
                <mxCell id="5iylKZXCibfrmUKTTWxW-12" value="间隔" style="text;html=1;align=center;verticalAlign=middle;resizable=0;points=[];autosize=1;strokeColor=none;fillColor=none;" parent="1" vertex="1">
                    <mxGeometry x="85" y="845" width="50" height="30" as="geometry"/>
                </mxCell>
                <mxCell id="o37cFrB2ECgQc44eybCR-3" value="FTickTaskLevel" style="swimlane;fontStyle=1;align=center;verticalAlign=top;childLayout=stackLayout;horizontal=1;startSize=26;horizontalStack=0;resizeParent=1;resizeParentMax=0;resizeLast=0;collapsible=1;marginBottom=0;" parent="1" vertex="1">
                    <mxGeometry x="410" y="540" width="160" height="86" as="geometry"/>
                </mxCell>
                <mxCell id="o37cFrB2ECgQc44eybCR-4" value="+ field: type" style="text;strokeColor=none;fillColor=none;align=left;verticalAlign=top;spacingLeft=4;spacingRight=4;overflow=hidden;rotatable=0;points=[[0,0.5],[1,0.5]];portConstraint=eastwest;" parent="o37cFrB2ECgQc44eybCR-3" vertex="1">
                    <mxGeometry y="26" width="160" height="26" as="geometry"/>
                </mxCell>
                <mxCell id="o37cFrB2ECgQc44eybCR-5" value="" style="line;strokeWidth=1;fillColor=none;align=left;verticalAlign=middle;spacingTop=-1;spacingLeft=3;spacingRight=3;rotatable=0;labelPosition=right;points=[];portConstraint=eastwest;strokeColor=inherit;" parent="o37cFrB2ECgQc44eybCR-3" vertex="1">
                    <mxGeometry y="52" width="160" height="8" as="geometry"/>
                </mxCell>
                <mxCell id="o37cFrB2ECgQc44eybCR-6" value="+ method(type): type" style="text;strokeColor=none;fillColor=none;align=left;verticalAlign=top;spacingLeft=4;spacingRight=4;overflow=hidden;rotatable=0;points=[[0,0.5],[1,0.5]];portConstraint=eastwest;" parent="o37cFrB2ECgQc44eybCR-3" vertex="1">
                    <mxGeometry y="60" width="160" height="26" as="geometry"/>
                </mxCell>
                <mxCell id="lzAvR1kIl79b5jcyL00h-7" value="所有的函数会放到这里" style="text;html=1;align=center;verticalAlign=middle;resizable=0;points=[];autosize=1;strokeColor=none;fillColor=none;" parent="1" vertex="1">
                    <mxGeometry x="400" y="510" width="140" height="30" as="geometry"/>
                </mxCell>
                <mxCell id="lzAvR1kIl79b5jcyL00h-8" value="可以放在任意类中&amp;nbsp;" style="text;html=1;align=center;verticalAlign=middle;resizable=0;points=[];autosize=1;strokeColor=none;fillColor=none;" parent="1" vertex="1">
                    <mxGeometry x="390" y="465" width="120" height="30" as="geometry"/>
                </mxCell>
            </root>
        </mxGraphModel>
    </diagram>
</mxfile>